<svg width="99" height="98" viewBox="0 0 99 98" fill="none" xmlns="http://www.w3.org/2000/svg">
<path d="M43 0.80633C42.9535 1.25601 42.7675 3.08576 42.5816 4.88449C42.3956 6.66772 42.2097 8.54399 42.1477 9.0557L42.0547 9.97057L40.8926 10.2652C36.3215 11.4437 31.4095 13.5991 27.6441 16.0801C26.544 16.8244 25.5523 17.4136 25.4748 17.4136C25.3818 17.4136 23.4759 16.1886 21.2291 14.669L17.1228 11.9244L16.7974 12.281C15.7127 13.413 12.3967 17.0415 10.2429 19.4604L7.73266 22.2516L8.55391 23.1044C9.00328 23.5696 10.5838 25.2288 12.0713 26.7949L14.752 29.6171L13.5744 32.0671C12.9391 33.4006 12.1953 35.1218 11.9319 35.8972C11.3586 37.6184 10.6768 40.1304 10.6768 40.5646C10.6768 40.8592 10.5218 40.9212 9.09625 41.1383C8.21302 41.2778 6.10566 41.5725 4.40118 41.7896C2.69669 42.0066 1.06969 42.2237 0.806267 42.2547L0.294922 42.3478V49V55.6367L0.883743 55.7297C1.19365 55.7763 3.27002 56.0399 5.48585 56.288C10.2119 56.8462 10.5373 56.8927 10.5993 57.1253C10.6303 57.2184 10.9092 58.1953 11.2036 59.2962C11.8699 61.6842 12.5517 63.4519 13.7913 65.9639L14.6901 67.8092L14.2097 68.3674C13.9308 68.6775 12.5982 70.1506 11.2191 71.6392C9.84002 73.1278 8.46094 74.632 8.15104 74.9731L7.59321 75.6089L9.40616 77.6092C14.814 83.5636 16.9524 85.8275 17.1693 85.812C17.3088 85.812 19.1217 84.6335 21.2136 83.207C23.3054 81.7649 25.1339 80.5399 25.2733 80.4623C25.4748 80.3538 25.8312 80.4934 26.7454 81.0671C31.2855 83.9203 35.3918 85.75 40.1798 87.0525L42.0547 87.5642L42.1632 88.6342C42.2252 89.2234 42.4731 91.5494 42.7365 93.7978C43 96.0462 43.2169 97.907 43.2169 97.938C43.2169 97.969 46.13 98 49.7094 98H56.1865L56.2949 96.6354C56.4809 94.3095 57.1627 87.7038 57.2246 87.6573C57.2556 87.6263 58.1853 87.3627 59.27 87.068C63.8256 85.8896 68.5982 83.7497 72.627 81.0826L73.7736 80.3383L77.1206 82.6022C78.9645 83.8582 80.855 85.1608 81.3198 85.5019L82.1721 86.1066L82.9468 85.2693C83.3807 84.8041 84.5738 83.4861 85.5965 82.3386C86.6037 81.1911 88.2152 79.4079 89.1449 78.3845C90.0902 77.3611 91.0509 76.3066 91.2833 76.0585L91.7172 75.5778L89.0675 72.7247C85.6895 69.0807 84.7443 67.9953 84.7443 67.7937C84.7443 67.7161 85.1936 66.7082 85.7515 65.5763C86.6347 63.762 88.3547 58.9861 88.6956 57.4199C88.7421 57.1408 88.804 56.9082 88.8195 56.9082C88.835 56.9082 91.0819 56.6291 93.7935 56.288C96.5207 55.9468 98.814 55.6677 98.876 55.6677C98.938 55.6677 99 52.675 99 49.0155V42.3633L97.9618 42.1927C97.3729 42.1152 96.2883 41.9601 95.5135 41.8671C94.7542 41.7896 92.9258 41.5259 91.4537 41.2934L88.7886 40.8747L88.6181 40.1769C87.9363 37.3703 87.0686 34.9203 85.643 31.8345L84.6978 29.7877L85.2246 29.1829C85.519 28.8418 86.8052 27.4307 88.0758 26.0506C89.3619 24.6706 90.6635 23.244 90.9734 22.8718L91.5467 22.2206L88.6646 19.0573C87.0841 17.3206 84.9767 15.0101 84.0005 13.9247L82.2185 11.9399L81.6607 12.281C80.8085 12.7927 77.4305 15.1032 75.664 16.3902C74.7963 17.0104 74.0215 17.5222 73.9286 17.5222C73.8511 17.5222 73.4017 17.2741 72.9524 16.9639C69.4039 14.576 66.5838 13.0718 63.1283 11.7848C60.8505 10.932 58.1079 10.0791 57.612 10.0791C57.4416 10.0791 57.3176 10.0326 57.3176 9.95507C57.3176 9.89304 57.0697 7.67563 56.7753 5.03956C56.4809 2.38798 56.2329 0.186077 56.2329 0.108545C56.2329 0.04652 53.2733 -2.80596e-06 49.6629 -2.80596e-06H43.0774L43 0.80633ZM55.7681 15.2582C66.8627 17.6927 76.0359 24.7171 80.638 34.3C85.2556 43.9604 85.1781 54.3962 80.3901 63.9171C76.5938 71.4687 69.6983 77.6712 61.7338 80.6794C57.9684 82.106 54.7144 82.7728 50.8096 82.9123C43.9297 83.1449 36.6004 81.0361 30.6502 77.082C24.3901 72.9263 19.85 67.2199 17.2623 60.2421C15.8987 56.5671 15.2789 53.0006 15.2944 48.7674C15.3254 41.9136 17.1073 36.1142 21.0121 30.2528C25.4748 23.5851 31.6574 18.9487 39.56 16.3592C43.7282 14.9946 45.4637 14.7465 50.2672 14.793C53.4903 14.8396 54.0171 14.8861 55.7681 15.2582Z" fill="black"/>
<path d="M47.0766 19.209C47.2803 18.598 47.719 18.1279 48.424 17.7676C48.6903 17.6266 49.2074 17.5169 49.5991 17.5169C51.7455 17.5169 53.0929 19.8043 52.0432 21.6844L51.6358 22.4208V32.6203V42.8199L52.5289 43.2585L53.4219 43.6816L54.4873 42.6318L55.5527 41.5821V33.6701V25.7737L55.02 25.1783C53.8606 23.9092 53.8606 22.2015 55.02 20.6974C56.4457 18.8173 59.5636 19.1933 60.77 21.4024C61.5377 22.8125 61.3027 24.3166 60.1276 25.4603L59.5166 26.0557L59.4539 32.7143L59.3912 39.373L60.629 39.42L61.8667 39.467L62.4777 38.8717L63.0731 38.292V35.5345V32.777L62.6031 32.3227C61.052 30.8342 61.5377 28.0454 63.5274 27.0271C64.6085 26.4944 65.5329 26.4787 66.5983 26.9801C68.4157 27.8261 69.1991 29.8159 68.3843 31.5393C68.071 32.213 67.2876 33.0277 66.9743 33.0277C66.8959 33.0277 66.8333 34.5004 66.8333 36.5529V40.0937L65.4075 41.5665L63.9661 43.0549L62.6971 43.0705C61.992 43.0862 60.9266 43.1332 60.2999 43.1959L59.1719 43.2899L57.5111 44.9193L55.866 46.5487L56.1324 47.3478C56.5241 48.5385 56.4927 50.7163 56.0541 51.813L55.725 52.659L56.7409 53.6147L57.8533 54.6958V57.7979V60.9784L60.3288 60.9314L62.7886 60.9784L62.8356 64.629L62.8669 68.2638L63.5093 68.8435C64.3553 69.6112 64.747 70.4102 64.747 71.3973C64.747 72.3687 64.3553 73.199 63.5563 73.8884C62.8199 74.5464 62.3812 74.7031 61.2531 74.7031C60.1251 74.7188 59.1224 74.1704 58.4173 73.1677C57.6026 72.0083 57.728 69.9559 58.6367 69.1255C58.9187 68.8748 58.95 68.6242 58.95 66.7441V64.6603H56.4432H53.9364V60.3204V55.9805L53.2496 55.5105L52.4349 55.8082L51.6358 56.1059L51.4792 66.4108C51.4792 74.5735 51.5105 75.5606 51.7298 75.7486C51.8708 75.8583 52.1842 76.3126 52.4349 76.7513C53.0772 77.8794 53.0772 79.1484 52.4192 80.1355C51.7612 81.1225 51.0091 81.5769 49.8967 81.6552C47.7973 81.8119 46.1522 80.3392 46.1522 78.3181C46.1522 77.4407 46.4342 76.7513 47.0766 75.9993L47.578 75.4353L47.6563 70.688C47.7033 68.0715 47.672 63.9667 47.6093 61.5539L47.6406 55.9962L47.1706 55.9022C46.9199 55.8395 46.5439 55.7142 46.3716 55.6202C46.0582 55.4635 45.9172 55.5575 44.8361 56.6855L43.6454 57.9389V62.5765V67.2141L41.546 69.3605L39.4622 71.4913L39.6659 71.9613C40.0106 72.7604 39.9322 73.7944 39.4622 74.7031C38.3028 76.9122 35.5767 77.2412 33.9473 75.3925C32.4118 73.6377 32.9602 71.1936 35.1223 70.1596C35.8744 69.7835 36.4227 69.3135 37.8955 67.7468L39.7286 65.804V61.1821C39.7286 56.6855 39.7442 56.5759 40.0576 56.2782C40.2456 56.1215 41.0916 55.2285 41.9533 54.3041L43.5044 52.6277L43.2381 51.7346C42.8934 50.5439 42.8934 48.7108 43.2381 47.5358L43.5201 46.5957L41.734 44.8253L39.9322 43.0549H37.6604H35.4043L34.0413 41.6605L32.6782 40.2817V36.7565V33.2314L32.0515 32.73C30.3281 31.3513 30.2811 28.8915 31.9575 27.4344C33.5556 26.0243 36.1094 26.4944 37.3001 28.3901C38.1461 29.7689 37.8485 31.6646 36.6107 32.777C36.2974 33.059 36.2817 33.2314 36.2817 35.6912V38.292L36.8771 38.8717C37.4881 39.467 37.4881 39.467 38.6475 39.42L39.8069 39.373L39.8382 32.7457L39.8696 26.1027L39.1802 25.4603C37.0808 23.4392 38.2558 19.9767 41.217 19.491C42.5957 19.256 44.2094 20.149 44.8361 21.4964C45.5098 22.9535 45.2905 24.1912 44.1468 25.382L43.5984 25.9617L43.7081 33.7641L43.8178 41.5665L44.8518 42.6005L45.8702 43.6502L46.6849 43.2742C47.1236 43.0705 47.578 42.8982 47.6876 42.8982C47.8443 42.8982 47.8756 40.9241 47.7973 32.4637C47.719 22.1701 47.7033 22.0135 47.3743 21.5591C46.9669 20.9794 46.8416 19.9297 47.0766 19.209Z" fill="#1BAF59"/>
<path d="M79.2468 40.7554C79.2468 39.2983 78.5751 38.1703 77.3256 37.5593C75.7324 36.7603 73.6081 37.5123 72.7491 39.1417C72.5304 39.5804 72.4992 39.5804 71.031 39.5804H71.0309H69.5315H67.2198V41.8208L67.1886 44.8132L67.1417 47.8056H49.765L49.7963 51.2367L67.2198 51.3777V55.1065V58.8509H69.8907H72.546L73.2958 59.6186C75.1076 61.483 77.7785 61.1383 78.8563 58.9449C80.0277 56.5479 78.4658 53.9001 75.8886 53.9158C74.8577 53.9314 73.3895 54.9498 73.3895 54.9498L72.8584 55.2945H72.0228H70.9685V49.106V42.6981H71.9056H72.8584L73.4207 43.1995C74.1861 43.8575 74.9514 44.1708 75.8886 44.1708C76.857 44.1708 77.6223 43.8575 78.294 43.1681C78.9812 42.4788 79.2468 41.8208 79.2468 40.7554Z" fill="#1BAF59"/>
<path d="M20.1584 40.7555C20.1584 39.2984 20.8321 38.1703 22.0855 37.5593C23.6836 36.7603 25.8144 37.5123 26.6761 39.1417C26.8954 39.5804 26.9267 39.5804 28.3995 39.5804H28.3995H29.9036H32.2224V41.8209L32.2537 44.8133L32.3007 47.8058H49.7308L49.6994 51.237L32.2224 51.378V55.1069V58.8514H29.5432H26.8797L26.1277 59.6191C24.3103 61.4835 21.6311 61.1388 20.5501 58.9454C19.375 56.5483 20.9418 53.9005 23.5269 53.9161C24.561 53.9318 26.0337 54.9502 26.0337 54.9502L26.5664 55.2949H27.4046H28.4622V49.1062V42.6982H27.5221H26.5664L26.0024 43.1996C25.2347 43.8576 24.467 44.171 23.5269 44.171C22.5555 44.171 21.7878 43.8576 21.1141 43.1683C20.4247 42.4789 20.1584 41.8209 20.1584 40.7555Z" fill="#1BAF59"/>
</svg>