<svg width="400" height="400" viewBox="0 0 400 400" fill="none" xmlns="http://www.w3.org/2000/svg">
<circle cx="200" cy="200" r="147" fill="#02171A"/>
<path d="M190.482 278V127.5L223.732 127.25L144.232 221.25L137.232 207.5H269.732V246.25H120.232L100.732 209.75L195.732 101H238.232V278H190.482Z" fill="white"/>
<path fill-rule="evenodd" clip-rule="evenodd" d="M330.62 238C334.122 225.94 336 213.189 336 200C336 124.889 275.111 64 200 64C124.889 64 64 124.889 64 200C64 213.189 65.8775 225.94 69.3799 238H65.2186C61.8187 225.916 60 213.171 60 200C60 122.68 122.68 60 200 60C277.32 60 340 122.68 340 200C340 213.171 338.181 225.916 334.781 238H330.62Z" fill="#FAFDF4"/>
<path d="M315.61 182.252C315.627 182.252 315.643 182.252 315.66 182.252C315.671 182.687 315.631 183.117 315.595 183.55C315.591 183.59 315.588 183.631 315.584 183.673C315.531 184.314 315.471 184.954 315.404 185.594C315.37 185.921 315.339 186.249 315.308 186.577C315.201 187.722 315.077 188.863 314.928 190.002C314.92 190.06 314.913 190.117 314.905 190.175C314.883 190.339 314.862 190.502 314.84 190.665C314.833 190.712 314.827 190.76 314.821 190.809C314.781 191.101 314.735 191.392 314.685 191.683C314.656 191.853 314.634 192.024 314.613 192.195C314.582 192.43 314.543 192.658 314.488 192.889C314.459 193.023 314.441 193.158 314.423 193.294C314.373 193.652 314.308 194.007 314.242 194.362C314.232 194.417 314.221 194.472 314.211 194.528C314.179 194.697 314.147 194.865 314.114 195.034C314.098 195.119 314.098 195.119 314.081 195.206C313.976 195.74 313.852 196.269 313.724 196.799C313.708 196.868 313.708 196.868 313.691 196.938C313.533 197.597 313.369 198.252 313.167 198.898C313.156 198.932 313.146 198.966 313.135 199C313.084 199.164 313.033 199.327 312.981 199.489C312.935 199.634 312.891 199.778 312.849 199.924C312.683 200.495 312.485 201.048 312.266 201.602C312.209 201.747 312.156 201.893 312.102 202.039C311.964 202.415 311.804 202.779 311.628 203.14C311.56 203.279 311.495 203.42 311.429 203.56C310.357 205.831 309.022 207.826 306.833 209.153C306.79 209.182 306.746 209.21 306.701 209.24C305.86 209.78 304.936 210.195 304.002 210.547C303.897 210.588 303.793 210.631 303.69 210.676C303.026 210.961 302.337 211.17 301.647 211.383C301.591 211.4 301.535 211.418 301.478 211.435C301.148 211.537 300.818 211.632 300.484 211.72C300.094 211.825 299.706 211.935 299.318 212.049C298.884 212.176 298.448 212.293 298.009 212.405C297.259 212.596 296.521 212.814 295.783 213.048C295.604 213.104 295.425 213.159 295.245 213.213C295.135 213.247 295.024 213.281 294.914 213.315C294.878 213.326 294.841 213.338 294.804 213.349C294.087 213.572 293.402 213.845 292.72 214.157C292.683 214.174 292.645 214.192 292.607 214.209C291.791 214.588 291.045 215.043 290.376 215.643C290.301 215.709 290.225 215.774 290.149 215.839C290.02 215.951 289.896 216.066 289.778 216.188C289.808 216.05 289.851 215.936 289.918 215.811C289.991 215.669 290.053 215.529 290.108 215.38C290.227 215.076 290.385 214.792 290.541 214.506C290.664 214.278 290.778 214.048 290.88 213.81C290.924 213.713 290.973 213.623 291.028 213.532C291.126 213.371 291.126 213.371 291.187 213.214C291.294 212.963 291.427 212.725 291.558 212.485C291.586 212.434 291.614 212.382 291.643 212.329C291.986 211.707 292.351 211.098 292.72 210.491C292.746 210.448 292.772 210.405 292.799 210.361C293.692 208.892 293.692 208.892 294.139 208.273C294.222 208.155 294.299 208.034 294.375 207.912C294.976 206.966 295.671 206.073 296.361 205.19C296.403 205.136 296.444 205.081 296.486 205.027C296.753 204.679 297.028 204.338 297.308 204.001C297.383 203.91 297.458 203.82 297.533 203.729C297.57 203.684 297.607 203.639 297.645 203.592C297.719 203.502 297.793 203.412 297.866 203.322C298.085 203.052 298.312 202.793 298.55 202.539C298.744 202.331 298.925 202.115 299.104 201.894C299.308 201.642 299.518 201.404 299.752 201.177C299.825 201.106 299.897 201.035 299.97 200.964C300.023 200.912 300.023 200.912 300.077 200.859C300.174 200.759 300.265 200.657 300.356 200.552C300.553 200.328 300.762 200.117 300.973 199.908C301.033 199.849 301.033 199.849 301.093 199.788C301.176 199.706 301.259 199.623 301.342 199.541C301.469 199.416 301.595 199.29 301.721 199.165C301.802 199.084 301.883 199.003 301.964 198.923C302.002 198.886 302.039 198.849 302.077 198.811C302.281 198.609 302.49 198.416 302.708 198.229C302.805 198.145 302.9 198.059 302.993 197.971C303.026 197.94 303.059 197.909 303.093 197.877C303.126 197.846 303.159 197.816 303.193 197.784C303.454 197.538 303.718 197.298 303.991 197.065C304.021 197.039 304.051 197.013 304.083 196.986C304.17 196.911 304.258 196.837 304.346 196.762C304.375 196.737 304.404 196.712 304.434 196.687C304.491 196.638 304.548 196.59 304.605 196.541C304.662 196.494 304.718 196.446 304.773 196.397C304.977 196.223 304.977 196.223 305.088 196.223C305.088 196.19 305.088 196.158 305.088 196.124C305.175 196.057 305.262 195.991 305.352 195.926C305.515 195.805 305.674 195.679 305.833 195.551C306.514 195.007 307.211 194.488 307.93 193.994C307.971 193.965 308.012 193.937 308.054 193.908C308.181 193.821 308.308 193.734 308.435 193.647C308.474 193.62 308.513 193.593 308.553 193.566C308.773 193.417 308.994 193.279 309.227 193.151C308.899 193.255 308.591 193.398 308.279 193.542C308.249 193.556 308.218 193.57 308.186 193.585C307.588 193.861 307.008 194.166 306.434 194.489C306.373 194.523 306.311 194.557 306.25 194.592C306.078 194.688 305.907 194.786 305.736 194.885C305.674 194.922 305.674 194.922 305.61 194.958C305.076 195.267 304.55 195.579 304.04 195.926C303.981 195.965 303.922 196.004 303.863 196.042C303.46 196.306 303.065 196.578 302.674 196.859C302.6 196.913 302.526 196.966 302.451 197.018C302.151 197.234 301.856 197.456 301.563 197.681C301.455 197.765 301.346 197.847 301.237 197.929C300.886 198.193 300.55 198.469 300.218 198.755C300.069 198.883 299.917 199.008 299.764 199.131C299.502 199.342 299.253 199.564 299.004 199.79C298.919 199.867 298.833 199.943 298.748 200.019C298.707 200.056 298.666 200.093 298.623 200.131C298.517 200.225 298.41 200.317 298.302 200.409C298.119 200.567 297.949 200.736 297.78 200.909C297.684 201.002 297.588 201.088 297.486 201.174C297.201 201.42 296.938 201.686 296.672 201.951C296.582 202.041 296.492 202.13 296.402 202.22C296.136 202.484 295.873 202.748 295.629 203.032C295.545 203.129 295.456 203.219 295.363 203.308C295.204 203.464 295.055 203.625 294.91 203.794C294.799 203.92 294.685 204.042 294.572 204.165C294.37 204.385 294.179 204.611 293.991 204.843C293.845 205.019 293.694 205.191 293.543 205.364C293.165 205.794 292.802 206.234 292.453 206.689C292.332 206.847 292.208 207.002 292.081 207.156C291.872 207.415 291.678 207.683 291.484 207.953C291.308 208.196 291.13 208.438 290.95 208.679C290.664 209.062 290.389 209.448 290.127 209.847C290.068 209.935 290.009 210.022 289.95 210.11C289.675 210.517 289.406 210.928 289.139 211.341C289.09 211.417 289.04 211.493 288.99 211.568C288.729 211.969 288.488 212.383 288.244 212.794C288.043 213.134 287.838 213.473 287.633 213.81C287.601 213.794 287.568 213.778 287.534 213.761C287.502 213.627 287.502 213.627 287.475 213.447C287.47 213.415 287.465 213.382 287.46 213.349C287.443 213.242 287.428 213.134 287.412 213.027C287.407 212.99 287.401 212.953 287.396 212.914C287.368 212.723 287.341 212.532 287.314 212.34C287.296 212.211 287.278 212.082 287.258 211.953C287.002 210.248 287.043 208.431 287.284 206.726C287.295 206.645 287.295 206.645 287.305 206.563C287.454 205.418 287.709 204.29 288.1 203.202C288.15 203.059 288.192 202.914 288.235 202.769C288.314 202.511 288.41 202.267 288.517 202.02C288.582 201.869 288.639 201.716 288.696 201.561C288.833 201.206 289.003 200.872 289.178 200.534C289.227 200.439 289.274 200.342 289.321 200.246C289.985 198.878 290.85 197.59 291.856 196.448C291.922 196.372 291.987 196.294 292.051 196.216C292.373 195.827 292.723 195.468 293.082 195.111C293.105 195.088 293.129 195.065 293.153 195.04C293.432 194.763 293.717 194.496 294.017 194.241C294.085 194.18 294.154 194.118 294.222 194.056C294.801 193.546 295.432 193.101 296.061 192.656C296.092 192.634 296.124 192.612 296.156 192.589C296.46 192.372 296.766 192.171 297.098 191.999C297.313 191.883 297.524 191.76 297.735 191.637C298.165 191.389 298.595 191.163 299.054 190.972C299.141 190.931 299.228 190.891 299.315 190.851C299.545 190.746 299.777 190.66 300.015 190.576C300.146 190.527 300.271 190.471 300.397 190.411C300.734 190.255 301.085 190.141 301.436 190.021C301.676 189.939 301.914 189.852 302.152 189.764C302.924 189.479 303.7 189.2 304.493 188.977C304.811 188.887 305.12 188.778 305.431 188.666C305.625 188.597 305.82 188.533 306.017 188.47C306.298 188.377 306.572 188.274 306.846 188.162C307.036 188.085 307.227 188.015 307.421 187.95C308.297 187.654 309.157 187.29 309.976 186.862C310.086 186.804 310.197 186.748 310.307 186.691C312.305 185.666 314.157 184.322 315.451 182.471C315.503 182.397 315.557 182.325 315.61 182.252Z" fill="#3EB14A"/>
<path d="M322.005 208.955C322.057 208.986 322.057 208.986 322.11 209.018C322.652 209.346 323.178 209.682 323.671 210.083C323.717 210.121 323.763 210.158 323.81 210.197C324.414 210.691 324.998 211.193 325.514 211.778C325.558 211.827 325.602 211.875 325.647 211.925C326.805 213.231 327.712 214.693 328.414 216.28C328.432 216.321 328.45 216.362 328.469 216.404C328.696 216.921 328.881 217.438 329.034 217.98C329.092 218.183 329.158 218.383 329.223 218.584C329.422 219.241 329.533 219.912 329.614 220.59C329.629 220.713 329.645 220.836 329.66 220.959C329.754 221.721 329.759 222.467 329.723 223.233C329.516 223.215 329.381 222.981 329.249 222.831C328.269 221.742 326.692 220.987 325.226 220.888C325.128 220.886 325.031 220.885 324.933 220.885C324.876 220.876 324.818 220.867 324.759 220.857C323.988 220.739 323.198 220.856 322.437 220.971C322.402 220.976 322.368 220.981 322.332 220.986C321.568 221.096 320.807 221.251 320.075 221.494C319.919 221.546 319.76 221.59 319.601 221.636C319.302 221.722 319.009 221.822 318.716 221.927C318.5 222.001 318.28 222.065 318.06 222.129C317.893 222.18 317.729 222.237 317.565 222.296C317.25 222.408 316.931 222.502 316.608 222.593C316.455 222.636 316.304 222.683 316.152 222.732C315.929 222.803 315.704 222.857 315.476 222.91C315.345 222.94 315.345 222.94 315.198 222.999C315.025 223.059 314.858 223.087 314.678 223.116C314.521 223.142 314.366 223.175 314.211 223.208C313.132 223.438 312.022 223.459 310.922 223.344C310.836 223.336 310.75 223.329 310.663 223.322C310.234 223.283 309.828 223.165 309.417 223.04C309.331 223.014 309.245 222.989 309.159 222.965C308.722 222.839 308.314 222.662 307.903 222.472C307.867 222.455 307.831 222.439 307.794 222.422C305.981 221.584 304.192 220.336 302.795 218.904C302.652 218.762 302.498 218.636 302.344 218.507C301.968 218.187 301.615 217.839 301.262 217.495C301.127 217.364 300.992 217.235 300.851 217.11C300.969 216.97 301.081 216.877 301.241 216.787C301.283 216.764 301.325 216.74 301.368 216.716C301.412 216.691 301.456 216.667 301.501 216.641C301.592 216.59 301.684 216.539 301.775 216.487C301.818 216.463 301.862 216.438 301.907 216.413C302.044 216.336 302.179 216.256 302.314 216.175C303.544 215.467 304.9 214.94 306.265 214.547C306.355 214.52 306.445 214.492 306.535 214.463C306.576 214.45 306.618 214.438 306.66 214.424C306.737 214.399 306.814 214.374 306.891 214.347C307.137 214.262 307.377 214.213 307.634 214.172C307.763 214.152 307.763 214.152 307.908 214.095C308.081 214.032 308.247 214.005 308.429 213.976C308.59 213.948 308.75 213.916 308.911 213.883C309.312 213.8 309.71 213.734 310.118 213.69C310.198 213.681 310.278 213.671 310.357 213.662C311.284 213.556 312.212 213.501 313.146 213.512C313.222 213.512 313.298 213.512 313.375 213.513C314.372 213.519 315.363 213.588 316.351 213.734C316.402 213.741 316.452 213.748 316.504 213.756C317.858 213.956 319.16 214.304 320.46 214.733C320.012 214.409 319.551 214.114 319.077 213.829C319.04 213.807 319.003 213.785 318.965 213.762C317.353 212.795 315.542 211.918 313.707 211.498C313.584 211.469 313.464 211.439 313.343 211.405C312.877 211.275 312.413 211.176 311.936 211.097C311.724 211.062 311.515 211.019 311.306 210.975C310.391 210.793 309.433 210.723 308.502 210.723C308.419 210.722 308.335 210.721 308.252 210.719C307.09 210.708 305.942 210.812 304.798 210.999C304.69 211.017 304.582 211.032 304.474 211.048C303.809 211.145 303.161 211.305 302.51 211.469C302.558 211.25 302.702 211.137 302.857 210.984C302.89 210.952 302.922 210.92 302.956 210.887C303.723 210.146 304.597 209.531 305.505 208.972C305.584 208.923 305.662 208.872 305.739 208.821C306.362 208.416 307.038 208.108 307.726 207.827C307.819 207.789 307.912 207.75 308.005 207.711C308.341 207.573 308.678 207.455 309.029 207.355C309.161 207.317 309.291 207.276 309.421 207.233C309.978 207.057 310.554 206.928 311.132 206.84C311.196 206.829 311.259 206.819 311.324 206.808C312.21 206.659 313.112 206.603 314.013 206.632C314.117 206.636 314.222 206.638 314.327 206.64C314.396 206.642 314.466 206.644 314.536 206.645C314.571 206.646 314.606 206.647 314.642 206.647C314.835 206.652 315.018 206.669 315.208 206.704C315.305 206.711 315.305 206.711 315.404 206.719C316.01 206.768 316.601 206.879 317.193 207.016C317.305 207.042 317.416 207.067 317.528 207.092C318.1 207.221 318.65 207.381 319.186 207.625C319.209 207.619 319.232 207.614 319.256 207.608C319.452 207.677 319.643 207.76 319.836 207.839C319.915 207.871 319.915 207.871 319.996 207.904C320.7 208.193 321.354 208.563 322.005 208.955Z" fill="#3EB14A"/>
<path d="M276.14 164.043C276.357 163.741 276.573 163.438 276.789 163.135C277.57 162.039 278.354 160.947 279.203 159.903C279.233 159.867 279.262 159.83 279.293 159.792C279.763 159.213 279.763 159.213 279.995 159.177C279.995 159.235 279.996 159.294 279.996 159.354C280.026 161.853 280.619 164.005 281.742 166.244C281.767 166.293 281.791 166.342 281.817 166.393C281.961 166.676 282.12 166.938 282.302 167.199C282.406 167.348 282.501 167.503 282.596 167.659C283.247 168.693 283.963 169.641 284.769 170.563C284.82 170.622 284.871 170.68 284.924 170.741C286.021 171.993 287.17 173.192 288.33 174.386C290.02 176.126 290.02 176.126 290.681 176.835C290.726 176.883 290.771 176.931 290.817 176.98C291.055 177.238 291.269 177.503 291.473 177.788C291.582 177.939 291.702 178.078 291.826 178.217C292.81 179.356 293.66 180.612 294.394 181.919C294.433 181.988 294.472 182.056 294.512 182.127C294.738 182.539 294.93 182.954 295.104 183.389C295.184 183.591 295.27 183.79 295.357 183.99C296.156 185.951 296.402 188.013 296.12 190.084C296.114 190.131 296.108 190.178 296.101 190.226C295.895 191.753 295.292 193.128 294.621 194.496C294.594 194.556 294.566 194.615 294.538 194.677C294.409 194.931 294.259 195.168 294.105 195.407C294.072 195.458 294.039 195.509 294.005 195.561C293.644 196.117 293.267 196.66 292.882 197.199C292.764 197.366 292.647 197.534 292.529 197.701C292.147 198.242 291.752 198.754 291.291 199.231C291.251 199.272 291.212 199.314 291.171 199.356C290.857 199.67 290.542 199.903 290.079 199.928C290.025 199.931 289.971 199.935 289.916 199.938C289.556 199.931 289.297 199.723 289.035 199.496C288.463 198.906 288.002 198.241 287.549 197.56C287.474 197.447 287.398 197.335 287.321 197.223C286.524 196.051 285.718 194.839 285.12 193.555C285.028 193.366 284.928 193.182 284.826 192.997C284.467 192.343 284.155 191.674 283.857 190.992C283.835 190.941 283.813 190.89 283.79 190.838C283.46 190.087 283.171 189.325 282.903 188.551C282.846 188.386 282.788 188.222 282.73 188.058C282.507 187.416 282.32 186.772 282.155 186.115C282.078 185.818 281.991 185.525 281.906 185.231C281.845 184.996 281.804 184.762 281.763 184.523C281.731 184.344 281.699 184.165 281.667 183.986C281.64 183.832 281.612 183.677 281.585 183.522C281.566 183.416 281.547 183.31 281.528 183.205C281.422 182.614 281.323 182.026 281.271 181.428C281.266 181.37 281.26 181.312 281.254 181.252C281.062 179.161 281.098 177.083 281.409 175.014C280.477 177.613 280.251 180.532 280.355 183.291C280.36 183.426 280.363 183.561 280.366 183.696C280.392 184.79 280.485 185.882 280.589 186.972C280.603 187.124 280.617 187.275 280.63 187.427C280.713 188.36 280.82 189.297 281 190.218C281.031 190.426 281.031 190.426 280.95 190.539C280.994 190.599 281.038 190.658 281.083 190.72C281.105 190.853 281.105 190.853 281.117 191.02C281.166 191.554 281.263 192.08 281.357 192.609C281.388 192.786 281.419 192.963 281.45 193.14C281.54 193.658 281.634 194.171 281.766 194.68C281.843 194.993 281.89 195.311 281.942 195.628C281.999 195.973 282.075 196.31 282.16 196.65C282.252 197.025 282.325 197.404 282.402 197.782C282.466 198.094 282.534 198.403 282.61 198.712C282.719 199.146 282.807 199.583 282.896 200.021C282.96 200.331 283.027 200.639 283.103 200.947C283.218 201.405 283.309 201.868 283.402 202.331C283.465 202.642 283.531 202.95 283.611 203.257C283.776 203.887 283.841 204.534 283.921 205.177C283.929 205.241 283.937 205.305 283.946 205.371C284.059 206.363 284.059 206.363 283.783 206.749C283.731 206.811 283.678 206.872 283.623 206.935C283.191 206.895 282.89 206.732 282.52 206.518C282.46 206.484 282.399 206.449 282.337 206.414C282.209 206.342 282.082 206.269 281.955 206.195C281.763 206.085 281.572 205.976 281.38 205.867C281.255 205.796 281.13 205.725 281.005 205.653C280.949 205.622 280.893 205.59 280.836 205.557C279.962 205.053 279.125 204.5 278.305 203.914C278.216 203.85 278.127 203.787 278.038 203.723C277.853 203.592 277.668 203.459 277.483 203.327C277.296 203.194 277.109 203.06 276.922 202.928C275.905 202.206 274.903 201.484 273.985 200.637C273.923 200.581 273.861 200.525 273.797 200.468C273.647 200.333 273.498 200.197 273.351 200.059C273.275 199.989 273.275 199.989 273.198 199.917C272.825 199.566 272.481 199.199 272.15 198.809C272.049 198.699 271.947 198.589 271.846 198.479C270.819 197.321 270.025 196.008 269.393 194.608C269.37 194.556 269.347 194.505 269.323 194.452C268.838 193.372 268.47 192.269 268.225 191.116C268.196 190.997 268.166 190.879 268.135 190.762C268.057 190.446 267.995 190.13 267.937 189.811C267.928 189.763 267.919 189.716 267.909 189.667C267.888 189.548 267.873 189.429 267.858 189.31C267.885 189.273 267.912 189.236 267.939 189.197C267.901 189.17 267.863 189.142 267.824 189.114C267.805 188.968 267.793 188.821 267.785 188.674C267.779 188.584 267.773 188.493 267.768 188.4C267.765 188.354 267.762 188.307 267.759 188.259C267.746 188.043 267.727 187.828 267.709 187.613C267.676 187.162 267.667 186.718 267.678 186.268C267.679 186.219 267.68 186.17 267.681 186.12C267.717 184.589 267.884 183.094 268.156 181.592C268.186 181.424 268.212 181.256 268.236 181.088C268.284 180.762 268.35 180.442 268.421 180.121C268.435 180.06 268.448 179.999 268.462 179.936C268.585 179.389 268.734 178.852 268.892 178.314C268.933 178.173 268.971 178.031 269.008 177.888C269.198 177.165 269.451 176.474 269.723 175.779C269.869 175.404 270.004 175.031 270.117 174.643C270.181 174.436 270.267 174.242 270.357 174.046C270.395 173.963 270.433 173.88 270.471 173.795C270.621 173.473 270.773 173.152 270.928 172.832C271.034 172.612 271.133 172.391 271.226 172.164C271.35 171.868 271.493 171.586 271.645 171.304C271.672 171.254 271.698 171.204 271.726 171.153C271.783 171.047 271.839 170.942 271.896 170.837C271.981 170.68 272.065 170.523 272.149 170.366C272.316 170.054 272.484 169.744 272.654 169.434C272.691 169.365 272.691 169.365 272.729 169.296C272.916 168.952 273.111 168.612 273.309 168.274C273.345 168.213 273.381 168.152 273.418 168.089C274.247 166.686 275.189 165.365 276.14 164.043Z" fill="#3EB14A"/>
<path d="M129.592 103.208C129.598 103.195 129.604 103.182 129.61 103.168C129.719 103.204 129.828 103.241 129.937 103.277C129.981 103.292 129.981 103.292 130.027 103.307C130.513 103.47 130.987 103.663 131.456 103.869C131.485 103.882 131.514 103.895 131.544 103.908C132.274 104.23 132.996 104.571 133.719 104.911C133.814 104.956 133.91 105.001 134.006 105.046C134.86 105.446 135.699 105.857 136.475 106.398C136.586 106.473 136.7 106.543 136.816 106.612C137.164 106.821 137.498 107.048 137.831 107.281C137.876 107.312 137.921 107.344 137.967 107.376C138.204 107.543 138.429 107.715 138.647 107.906C138.765 108.008 138.888 108.102 139.012 108.198C139.357 108.469 139.675 108.767 139.992 109.069C140.089 109.16 140.186 109.251 140.284 109.341C140.825 109.849 140.825 109.849 141.036 110.138C141.118 110.243 141.209 110.334 141.303 110.428C142.375 111.532 143.269 113.04 143.826 114.463C143.875 114.587 143.927 114.708 143.981 114.829C144.077 115.047 144.155 115.267 144.228 115.493C144.247 115.553 144.247 115.553 144.267 115.615C144.384 115.987 144.476 116.361 144.554 116.743C144.562 116.779 144.569 116.815 144.577 116.852C144.764 117.732 144.857 118.623 144.86 119.522C144.86 119.632 144.862 119.742 144.863 119.852C144.868 120.324 144.854 120.791 144.82 121.262C144.816 121.339 144.811 121.415 144.807 121.492C144.742 122.581 144.647 123.699 144.445 124.772C144.384 125.1 144.349 125.432 144.311 125.763C144.272 126.103 144.223 126.441 144.166 126.778C144.144 126.929 144.129 127.078 144.118 127.23C144.107 127.365 144.09 127.498 144.074 127.633C144.058 127.76 144.043 127.887 144.028 128.014C144.024 128.047 144.02 128.081 144.016 128.115C143.898 129.119 143.834 130.137 143.863 131.148C143.865 131.216 143.867 131.284 143.869 131.352C143.87 131.402 143.87 131.402 143.872 131.454C143.874 131.548 143.875 131.643 143.876 131.737C143.882 132.102 143.909 132.455 143.964 132.816C143.971 132.866 143.978 132.916 143.985 132.968C144.062 133.515 144.172 134.049 144.325 134.58C144.368 134.731 144.393 134.864 144.393 135.02C143.428 134.555 142.544 133.97 141.733 133.271C141.679 133.227 141.626 133.183 141.572 133.139C141.043 132.704 140.55 132.24 140.088 131.735C139.984 131.622 139.877 131.513 139.769 131.404C139.359 130.99 138.999 130.551 138.666 130.074C138.555 129.914 138.44 129.761 138.317 129.611C137.855 129.033 137.493 128.372 137.137 127.725C137.123 127.699 137.108 127.672 137.093 127.644C136.779 127.075 136.518 126.484 136.276 125.881C136.233 125.774 136.19 125.667 136.146 125.559C136.114 125.48 136.082 125.401 136.05 125.321C136.027 125.266 136.027 125.266 136.005 125.21C135.916 124.989 135.843 124.767 135.779 124.537C135.739 124.393 135.692 124.25 135.645 124.108C135.349 123.173 135.193 122.193 135.059 121.224C135.051 121.173 135.044 121.121 135.036 121.068C134.992 120.745 134.968 120.425 134.952 120.1C134.949 120.041 134.946 119.982 134.943 119.923C134.926 119.607 134.911 119.291 134.902 118.975C134.901 118.921 134.899 118.867 134.897 118.811C134.898 118.664 134.913 118.527 134.931 118.382C134.935 118.298 134.939 118.214 134.942 118.13C134.975 117.209 135.036 116.212 135.278 115.321C135.329 115.131 135.373 114.941 135.418 114.75C135.436 114.676 135.453 114.602 135.471 114.527C135.484 114.472 135.497 114.417 135.51 114.361C135.281 115.01 135.073 115.655 134.922 116.327C134.912 116.371 134.902 116.416 134.892 116.461C134.69 117.342 134.528 118.223 134.433 119.122C134.425 119.197 134.425 119.197 134.417 119.275C134.4 119.441 134.384 119.608 134.369 119.775C134.366 119.809 134.363 119.844 134.36 119.879C134.268 120.885 134.237 121.896 134.301 122.906C134.308 123.016 134.314 123.127 134.32 123.238C134.404 124.694 134.635 126.138 134.996 127.553C135.03 127.691 135.062 127.829 135.093 127.968C135.157 128.237 135.241 128.499 135.327 128.763C135.383 128.932 135.435 129.101 135.482 129.273C135.565 129.564 135.669 129.848 135.772 130.132C135.791 130.186 135.811 130.239 135.83 130.294C135.939 130.595 136.055 130.889 136.188 131.18C136.215 131.242 136.243 131.304 136.27 131.365C136.354 131.552 136.438 131.739 136.523 131.925C136.544 131.971 136.565 132.017 136.587 132.065C137.273 133.535 138.161 134.88 139.124 136.184C139.117 136.197 139.111 136.21 139.105 136.224C138.343 135.893 137.625 135.518 136.921 135.076C136.887 135.055 136.853 135.033 136.818 135.011C136.185 134.613 135.577 134.186 134.988 133.724C134.965 133.705 134.942 133.687 134.918 133.668C134.571 133.397 134.229 133.121 133.89 132.84C133.852 132.809 133.814 132.777 133.775 132.745C133.564 132.569 133.366 132.386 133.175 132.188C133.099 132.111 133.022 132.036 132.943 131.961C132.622 131.657 132.317 131.337 132.015 131.015C131.981 130.979 131.946 130.942 131.911 130.905C131.707 130.687 131.523 130.463 131.351 130.219C131.262 130.096 131.16 129.985 131.058 129.872C130.795 129.553 130.562 129.221 130.34 128.872C130.311 128.828 130.282 128.783 130.252 128.736C130.09 128.483 129.939 128.227 129.803 127.959C129.774 127.904 129.745 127.849 129.716 127.794C129.56 127.494 129.412 127.194 129.281 126.882C129.264 126.843 129.247 126.804 129.23 126.764C128.981 126.192 128.761 125.601 128.601 124.998C128.587 124.947 128.572 124.896 128.556 124.844C128.416 124.362 128.334 123.875 128.26 123.379C128.245 123.282 128.229 123.186 128.213 123.089C128.147 122.704 128.134 122.327 128.131 121.937C128.129 121.808 128.122 121.679 128.117 121.549C128.109 121.215 128.146 120.888 128.185 120.557C128.195 120.471 128.203 120.384 128.211 120.297C128.299 119.403 128.532 118.539 128.834 117.696C128.874 117.584 128.913 117.471 128.952 117.357C129.167 116.752 129.432 116.174 129.704 115.593C129.724 115.55 129.744 115.508 129.764 115.464C129.952 115.062 130.14 114.662 130.33 114.261C130.821 113.221 131.278 112.198 131.604 111.093C131.64 110.975 131.677 110.858 131.714 110.74C131.972 109.896 132.194 108.886 132.086 108.003C132.089 107.967 132.091 107.932 132.094 107.896C132.143 106.866 131.747 105.724 131.218 104.858C131.192 104.813 131.165 104.768 131.138 104.722C130.9 104.334 130.614 104.034 130.278 103.729C130.242 103.695 130.205 103.662 130.167 103.627C129.985 103.467 129.8 103.332 129.592 103.208Z" fill="#3EB14A"/>
<path d="M93.0411 163.711C92.9635 163.49 93.0437 163.311 93.1186 163.101C93.1328 163.06 93.1469 163.02 93.1614 162.978C93.1941 162.884 93.227 162.791 93.2602 162.698C93.3234 162.52 93.3857 162.342 93.448 162.164C93.6732 161.524 93.9042 160.888 94.1601 160.26C94.1901 160.186 94.1901 160.186 94.2207 160.111C94.3209 159.869 94.4307 159.643 94.5639 159.416C94.5931 159.33 94.6223 159.243 94.6505 159.156C94.8081 158.728 95.0386 158.328 95.2694 157.935C95.3308 157.826 95.3886 157.715 95.4438 157.604C95.5385 157.412 95.6406 157.226 95.7471 157.04C95.7675 157.005 95.7879 156.969 95.8089 156.933C96.7911 155.227 97.8809 153.627 99.1883 152.145C99.2281 152.099 99.268 152.054 99.309 152.007C99.5444 151.74 99.79 151.486 100.044 151.237C100.161 151.122 100.277 151.006 100.392 150.889C100.423 150.858 100.454 150.827 100.486 150.795C100.576 150.701 100.576 150.701 100.664 150.587C100.692 150.556 100.719 150.526 100.747 150.495C100.783 150.497 100.819 150.499 100.856 150.5C100.872 150.47 100.888 150.439 100.904 150.407C100.98 150.284 101.058 150.204 101.166 150.107C101.204 150.073 101.242 150.039 101.28 150.004C101.321 149.969 101.361 149.933 101.402 149.897C101.443 149.86 101.484 149.824 101.527 149.786C101.804 149.543 102.086 149.318 102.39 149.108C102.52 149.018 102.52 149.018 102.641 148.903C102.745 148.813 102.745 148.813 102.855 148.818C102.856 148.782 102.858 148.747 102.86 148.71C102.957 148.635 103.059 148.564 103.161 148.496C103.193 148.474 103.226 148.452 103.259 148.43C103.371 148.355 103.484 148.281 103.596 148.207C103.639 148.178 103.682 148.149 103.726 148.12C104.238 147.78 104.748 147.447 105.29 147.156C105.357 147.119 105.425 147.081 105.492 147.043C106.81 146.302 108.197 145.693 109.653 145.265C109.773 145.225 109.892 145.185 110.011 145.144C110.406 145.016 110.807 144.922 111.212 144.831C111.303 144.81 111.394 144.789 111.484 144.768C111.904 144.671 112.328 144.611 112.754 144.553C112.79 144.548 112.826 144.543 112.862 144.538C114.051 144.374 115.208 144.32 116.407 144.387C116.472 144.39 116.536 144.393 116.603 144.397C117.593 144.448 118.561 144.536 119.536 144.721C119.651 144.741 119.765 144.762 119.879 144.782C120.594 144.913 120.594 144.913 120.785 144.971C120.953 145.02 121.127 145.027 121.3 145.042C121.71 145.082 122.109 145.152 122.511 145.237C124.082 145.568 125.762 145.599 127.338 145.315C127.387 145.307 127.435 145.298 127.485 145.29C129.22 144.983 130.911 144.135 131.938 142.691C131.964 142.653 131.99 142.615 132.016 142.576C132.033 142.613 132.049 142.649 132.066 142.687C132.003 142.826 131.938 142.957 131.865 143.091C131.843 143.131 131.821 143.171 131.799 143.212C131.569 143.623 131.294 143.992 130.999 144.36C130.967 144.401 130.935 144.441 130.902 144.483C130.704 144.727 130.482 144.946 130.256 145.166C130.172 145.249 130.091 145.335 130.013 145.424C129.844 145.61 129.647 145.751 129.445 145.903C129.396 145.941 129.347 145.979 129.296 146.019C128.839 146.368 128.357 146.666 127.861 146.958C127.802 146.994 127.743 147.029 127.682 147.065C127.431 147.21 127.169 147.329 126.906 147.451C126.834 147.485 126.762 147.52 126.691 147.554C126.617 147.589 126.542 147.624 126.468 147.659C126.433 147.676 126.398 147.693 126.362 147.71C126.155 147.807 125.954 147.876 125.732 147.934C125.607 147.976 125.482 148.02 125.357 148.064C123.833 148.586 122.214 148.937 120.605 149.062C120.431 149.077 120.258 149.097 120.084 149.118C119.29 149.215 118.491 149.259 117.692 149.309C117.564 149.317 117.436 149.325 117.308 149.333C117.142 149.343 116.976 149.354 116.809 149.364C116.396 149.389 115.985 149.421 115.573 149.468C115.412 149.482 115.254 149.486 115.092 149.486C114.705 149.493 114.328 149.546 113.946 149.598C113.65 149.638 113.356 149.672 113.059 149.694C112.435 149.741 111.829 149.825 111.221 149.975C111.044 150.015 110.869 150.048 110.69 150.077C110.195 150.159 109.722 150.283 109.244 150.434C109.125 150.471 109.006 150.508 108.887 150.544C107.425 150.995 106.052 151.642 104.81 152.526C104.752 152.567 104.695 152.608 104.635 152.65C104.324 152.873 104.025 153.093 103.773 153.382C103.738 153.419 103.703 153.457 103.668 153.495C103.632 153.493 103.596 153.492 103.559 153.49C103.535 153.535 103.535 153.535 103.511 153.581C103.433 153.71 103.344 153.807 103.24 153.916C102.773 154.43 102.347 155.009 102.031 155.627C102.074 155.584 102.117 155.542 102.162 155.499C103.133 154.55 104.173 153.728 105.385 153.093C105.427 153.071 105.469 153.049 105.512 153.027C106.081 152.73 106.647 152.454 107.253 152.241C107.447 152.172 107.636 152.097 107.826 152.019C108.828 151.621 109.909 151.398 110.968 151.201C111.103 151.176 111.237 151.15 111.371 151.121C115.378 150.308 119.963 150.838 123.973 151.461C123.77 152.291 123.476 153.079 123.138 153.864C123.112 153.924 123.086 153.984 123.059 154.046C122.938 154.323 122.812 154.591 122.657 154.851C122.591 154.968 122.535 155.088 122.48 155.211C122.355 155.485 122.21 155.744 122.055 156.002C122.027 156.05 121.999 156.097 121.969 156.145C120.988 157.763 119.684 159.248 118.12 160.345C118.034 160.407 118.034 160.407 117.947 160.47C117.558 160.746 117.157 160.979 116.731 161.195C116.55 161.288 116.373 161.385 116.198 161.488C116.037 161.567 115.869 161.623 115.701 161.683C115.641 161.706 115.582 161.728 115.521 161.752C112.178 163.013 108.81 162.296 105.462 161.452C102.508 160.708 99.1776 159.995 96.2539 161.215C96.1462 161.259 96.0368 161.3 95.9268 161.339C95.4204 161.53 94.9652 161.815 94.5371 162.14C94.428 162.214 94.428 162.214 94.3188 162.209C94.2981 162.261 94.2775 162.314 94.2563 162.368C94.1931 162.426 94.1295 162.484 94.0644 162.54C93.6646 162.893 93.3363 163.269 93.0411 163.711Z" fill="#3EB14A"/>
<path d="M103.701 116.954C103.866 116.902 104.02 116.866 104.192 116.852C104.235 116.848 104.277 116.845 104.32 116.841C104.364 116.838 104.409 116.835 104.454 116.831C104.5 116.828 104.546 116.824 104.593 116.821C104.889 116.8 105.181 116.795 105.477 116.804C105.651 116.805 105.822 116.793 105.996 116.779C106.912 116.707 107.835 116.739 108.751 116.758C108.822 116.76 108.892 116.761 108.965 116.762C110.006 116.784 111.033 116.84 112.065 116.966C112.132 116.974 112.199 116.982 112.267 116.99C113.432 117.13 114.58 117.304 115.722 117.567C115.859 117.598 115.997 117.628 116.134 117.658C117.375 117.93 118.556 118.319 119.738 118.78C119.79 118.8 119.79 118.8 119.843 118.82C120.987 119.264 122.095 119.742 123.155 120.365C123.186 120.383 123.217 120.401 123.249 120.42C123.79 120.739 124.319 121.068 124.82 121.449C124.915 121.521 125.011 121.591 125.108 121.66C125.152 121.692 125.152 121.692 125.197 121.724C125.266 121.772 125.335 121.819 125.405 121.865C125.867 122.178 126.273 122.556 126.687 122.93C126.791 123.023 126.895 123.116 126.999 123.209C127.364 123.532 127.705 123.872 128.036 124.23C128.088 124.283 128.139 124.337 128.19 124.39C129.445 125.7 130.516 127.213 131.29 128.869C131.364 129.026 131.441 129.179 131.52 129.332C131.736 129.751 131.901 130.183 132.053 130.63C132.076 130.696 132.099 130.763 132.123 130.831C132.308 131.363 132.454 131.898 132.577 132.448C132.587 132.489 132.596 132.53 132.605 132.572C132.773 133.322 132.894 134.067 132.954 134.837C132.972 135.044 132.998 135.249 133.026 135.455C133.07 135.825 133.068 136.186 133.057 136.558C133.049 136.794 133.05 137.03 133.053 137.266C133.062 138.262 132.975 139.231 132.856 140.221C132.844 140.335 132.835 140.45 132.83 140.564C132.821 140.709 132.804 140.842 132.776 140.984C132.767 141.029 132.758 141.075 132.749 141.122C132.739 141.17 132.729 141.218 132.719 141.268C132.639 141.681 132.571 142.092 132.516 142.509C132.454 142.98 132.364 143.439 132.256 143.902C132.217 144.068 132.185 144.234 132.157 144.402C132.105 144.699 132.035 144.99 131.961 145.282C131.933 145.393 131.905 145.504 131.877 145.614C131.863 145.671 131.849 145.728 131.834 145.786C131.778 146.011 131.722 146.236 131.667 146.461C131.612 146.683 131.556 146.905 131.501 147.127C131.473 147.241 131.445 147.354 131.417 147.467C131.376 147.634 131.334 147.801 131.293 147.968C131.28 148.019 131.268 148.069 131.255 148.121C131.189 148.384 131.113 148.633 131.008 148.884C130.967 148.691 130.963 148.53 130.966 148.332C130.966 148.261 130.967 148.189 130.967 148.116C130.969 147.968 130.97 147.819 130.972 147.671C130.975 147.244 130.965 146.82 130.938 146.394C130.93 146.259 130.924 146.125 130.922 145.99C130.916 145.77 130.9 145.552 130.881 145.333C130.877 145.29 130.874 145.247 130.87 145.203C130.838 144.842 130.79 144.485 130.736 144.127C130.711 143.951 130.69 143.776 130.671 143.599C130.535 142.451 130.253 141.325 129.946 140.216C129.913 140.094 129.88 139.973 129.847 139.851C129.717 139.37 129.555 138.908 129.377 138.444C129.342 138.348 129.307 138.251 129.273 138.154C129.258 138.11 129.243 138.066 129.227 138.021C129.196 137.932 129.165 137.842 129.136 137.751C129.039 137.464 128.922 137.203 128.781 136.936C128.696 136.766 128.646 136.585 128.587 136.404C128.528 136.279 128.464 136.157 128.4 136.035C128.324 135.889 128.253 135.741 128.183 135.592C127.988 135.181 127.779 134.782 127.553 134.389C127.53 134.348 127.506 134.307 127.482 134.264C127.198 133.768 126.914 133.277 126.582 132.813C126.484 132.673 126.39 132.53 126.296 132.387C126.116 132.111 125.929 131.844 125.734 131.58C125.7 131.533 125.666 131.487 125.631 131.44C125.328 131.035 125.003 130.652 124.669 130.273C124.631 130.231 124.594 130.189 124.556 130.145C124.523 130.108 124.49 130.071 124.456 130.033C124.367 129.925 124.367 129.925 124.296 129.806C124.218 129.681 124.135 129.598 124.026 129.501C123.838 129.327 123.665 129.146 123.494 128.956C123.074 128.489 122.627 128.076 122.147 127.674C122.015 127.562 121.89 127.443 121.764 127.324C121.467 127.048 121.148 126.803 120.826 126.558C120.727 126.481 120.629 126.404 120.531 126.326C120.168 126.039 119.802 125.767 119.411 125.519C119.296 125.445 119.182 125.369 119.068 125.293C118.254 124.76 117.405 124.301 116.547 123.846C116.51 123.826 116.473 123.807 116.435 123.787C116.325 123.728 116.214 123.671 116.103 123.613C116.061 123.592 116.019 123.57 115.976 123.548C115.643 123.379 115.304 123.232 114.958 123.091C114.875 123.057 114.875 123.057 114.791 123.022C114.616 122.951 114.442 122.88 114.267 122.809C114.148 122.76 114.029 122.711 113.91 122.662C113.62 122.544 113.329 122.425 113.039 122.307C113.026 122.341 113.012 122.375 112.999 122.411C113.059 122.433 113.119 122.454 113.181 122.477C113.382 122.555 113.559 122.653 113.741 122.769C113.773 122.79 113.805 122.81 113.838 122.831C113.945 122.9 114.052 122.97 114.16 123.04C114.198 123.065 114.236 123.09 114.276 123.116C114.845 123.49 115.408 123.874 115.969 124.26C116.028 124.301 116.087 124.342 116.149 124.384C116.205 124.423 116.261 124.461 116.318 124.501C116.368 124.535 116.417 124.57 116.469 124.605C117.734 125.505 119.011 126.515 120.087 127.64C120.204 127.761 120.322 127.877 120.446 127.991C120.659 128.19 120.86 128.402 121.06 128.616C121.15 128.711 121.242 128.804 121.335 128.895C121.62 129.182 121.876 129.495 122.137 129.805C122.216 129.899 122.295 129.993 122.375 130.087C123.652 131.592 124.742 133.238 125.685 134.981C125.705 135.016 125.724 135.052 125.744 135.089C125.983 135.525 126.205 135.967 126.415 136.419C126.507 136.618 126.603 136.814 126.704 137.008C126.864 137.319 127.001 137.64 127.138 137.962C127.163 138.02 127.188 138.078 127.214 138.138C127.346 138.446 127.468 138.755 127.577 139.073C127.643 139.262 127.716 139.448 127.789 139.634C127.963 140.086 128.119 140.543 128.267 141.005C128.289 141.072 128.311 141.139 128.333 141.208C128.478 141.669 128.478 141.669 128.433 141.786C127.629 141.913 126.827 142.038 126.017 142.111C125.852 142.127 125.688 142.145 125.523 142.162C125.105 142.207 124.687 142.246 124.268 142.266C124.198 142.269 124.128 142.273 124.056 142.276C122.453 142.345 120.93 142.215 119.377 141.842C119.242 141.81 119.242 141.81 119.128 141.802C118.798 141.752 118.477 141.592 118.167 141.472C118.126 141.456 118.086 141.441 118.045 141.425C117.419 141.182 116.836 140.913 116.273 140.544C116.203 140.5 116.132 140.456 116.061 140.412C115.673 140.164 115.314 139.889 114.965 139.589C114.928 139.557 114.892 139.526 114.855 139.494C114.638 139.304 114.461 139.107 114.286 138.877C114.236 138.817 114.186 138.756 114.135 138.697C113.79 138.282 113.487 137.863 113.223 137.389C113.206 137.357 113.188 137.325 113.169 137.293C112.897 136.807 112.666 136.305 112.444 135.794C112.408 135.71 112.408 135.71 112.371 135.625C112.207 135.24 112.08 134.851 111.963 134.449C111.93 134.341 111.896 134.233 111.862 134.125C111.442 132.737 111.172 131.277 110.997 129.834C110.921 129.214 110.814 128.6 110.712 127.985C110.682 127.807 110.654 127.629 110.626 127.451C110.465 126.429 110.288 125.41 109.997 124.417C109.982 124.365 109.968 124.312 109.952 124.258C109.924 124.158 109.895 124.058 109.866 123.959C109.837 123.86 109.809 123.762 109.781 123.663C109.674 123.287 109.541 122.924 109.4 122.56C109.373 122.49 109.373 122.49 109.346 122.418C109.219 122.096 109.073 121.789 108.91 121.484C108.889 121.446 108.869 121.408 108.848 121.368C108.479 120.685 108.055 120.08 107.554 119.489C107.474 119.393 107.396 119.295 107.32 119.195C107.173 119.009 107.006 118.857 106.827 118.704C106.795 118.676 106.762 118.648 106.729 118.62C106.414 118.352 106.088 118.1 105.747 117.867C105.711 117.842 105.675 117.817 105.639 117.792C105.26 117.543 104.854 117.387 104.432 117.23C104.36 117.203 104.289 117.176 104.218 117.149C104.046 117.084 103.873 117.019 103.701 116.954Z" fill="#3EB14A"/>
<path d="M74.9138 260.694C74.0472 259.193 73.4204 257.707 73.0335 256.237C72.6599 254.79 72.5195 253.347 72.6123 251.907C72.7416 250.478 73.0858 249.047 73.645 247.616L78.0988 248.37C77.2386 250.56 76.8337 252.472 76.884 254.106C76.9573 255.726 77.4674 257.357 78.414 258.996C78.9874 259.989 79.6659 260.845 80.4497 261.562C81.2335 262.28 82.0443 262.751 82.8821 262.975C83.72 263.2 84.5084 263.099 85.2474 262.672C85.7324 262.392 86.0863 262.018 86.3091 261.551C86.5453 261.107 86.6637 260.592 86.6644 260.006C86.7016 259.431 86.6574 258.794 86.5319 258.097C86.4197 257.423 86.2529 256.734 86.0315 256.03C85.8332 255.313 85.5868 254.593 85.2926 253.87C84.7368 252.374 84.3486 250.982 84.1279 249.693C83.9071 248.404 83.8837 247.217 84.0574 246.131C84.2445 245.068 84.624 244.126 85.1959 243.303C85.7908 242.467 86.6079 241.748 87.6472 241.148C88.6633 240.562 89.7319 240.253 90.8531 240.221C91.9876 240.213 93.095 240.451 94.1755 240.936C95.2924 241.43 96.3391 242.15 97.3158 243.095C98.3155 244.027 99.1954 245.151 99.9554 246.467C100.769 247.876 101.347 249.251 101.69 250.592C102.034 251.933 102.142 253.241 102.015 254.515C101.912 255.776 101.572 256.973 100.995 258.107L96.8472 257.083C97.3257 256.099 97.6305 255.107 97.7617 254.107C97.8929 253.108 97.8455 252.119 97.6195 251.141C97.43 250.173 97.0685 249.227 96.5352 248.303C95.9352 247.264 95.2633 246.42 94.5195 245.772C93.789 245.147 93.0364 244.75 92.2617 244.581C91.5101 244.399 90.7878 244.508 90.095 244.908C89.5639 245.215 89.1638 245.615 88.8947 246.109C88.6257 246.603 88.4695 247.186 88.4262 247.858C88.406 248.516 88.5004 249.293 88.7095 250.188C88.9416 251.071 89.2569 252.043 89.6552 253.107C90.1843 254.556 90.5841 255.942 90.8546 257.264C91.1615 258.595 91.2827 259.819 91.2182 260.934C91.1901 262.058 90.9333 263.054 90.4476 263.919C89.9752 264.808 89.2425 265.538 88.2495 266.112C86.7022 267.005 85.1179 267.381 83.4965 267.239C81.8751 267.098 80.326 266.468 78.8491 265.35C77.3856 264.255 76.0738 262.703 74.9138 260.694Z" fill="#FAFDF4"/>
<path d="M122.946 312.96L134.866 292.314L127.107 287.834L129.187 284.231L148.655 295.471L146.575 299.074L138.608 294.474L126.688 315.12L122.946 312.96Z" fill="#FAFDF4"/>
<path d="M210.252 334.588L198.292 306.588H193.612L181.732 334.588H186.412L194.012 316.748C194.145 316.428 194.332 315.962 194.572 315.348C194.785 314.708 195.025 314.028 195.292 313.308C195.559 312.588 195.812 311.908 196.052 311.268C196.292 310.602 196.479 310.082 196.612 309.708L195.532 309.668C195.719 310.202 195.932 310.788 196.172 311.428C196.385 312.068 196.625 312.722 196.892 313.388C197.132 314.055 197.372 314.695 197.612 315.308C197.852 315.895 198.065 316.428 198.252 316.908L205.812 334.588H210.252ZM205.012 327.788L203.332 323.628H189.092L187.692 327.788H205.012Z" fill="#FAFDF4"/>
<path d="M261.316 320.12L247.316 295.871L250.988 293.751L268.828 302.25L267.214 303.136L268.898 283.411L272.431 281.371L286.431 305.62L282.69 307.78L276.87 297.7C275.71 295.69 274.696 293.828 273.828 292.112C272.97 290.359 272.182 288.567 271.463 286.734L272.693 287.825L270.945 305.277L268.658 306.597L252.884 299.354L252.445 297.714C253.645 299.207 254.772 300.758 255.824 302.368C256.886 303.941 258.024 305.778 259.237 307.88L265.057 317.96L261.316 320.12Z" fill="#FAFDF4"/>
<path d="M320.644 266.274L296.395 252.274L303.075 240.704C303.862 239.342 304.91 238.299 306.22 237.578C307.52 236.819 308.929 236.432 310.447 236.416C311.979 236.376 313.437 236.756 314.823 237.556C316.232 238.37 317.307 239.468 318.048 240.85C318.803 242.21 319.187 243.678 319.199 245.256C319.226 246.811 318.832 248.293 318.019 249.701L313.659 257.253L322.804 262.533L320.644 266.274ZM310.056 255.173L314.316 247.794C314.729 247.079 314.924 246.314 314.902 245.5C314.892 244.663 314.694 243.887 314.307 243.17C313.897 242.441 313.322 241.863 312.583 241.436C311.867 241.023 311.114 240.834 310.323 240.87C309.532 240.907 308.784 241.136 308.077 241.56C307.384 241.96 306.831 242.519 306.418 243.234L302.158 250.613L310.056 255.173Z" fill="#FAFDF4"/>
</svg>
