<svg width="50" height="50" viewBox="0 0 50 50" fill="none" xmlns="http://www.w3.org/2000/svg">
<path fill-rule="evenodd" clip-rule="evenodd" d="M24.3867 0.310546C24.5516 0.182683 24.7524 0.10961 24.9609 0.101562C25.1962 0.0922608 25.4272 0.166266 25.6133 0.310546L48.6133 18.2109C48.7226 18.2894 48.815 18.3891 48.8849 18.5041C48.9548 18.6191 49.0007 18.747 49.02 18.8801C49.0393 19.0133 49.0315 19.149 48.9972 19.2791C48.9628 19.4092 48.9025 19.531 48.8199 19.6372C48.7373 19.7435 48.6342 19.832 48.5166 19.8974C48.399 19.9628 48.2694 20.0039 48.1356 20.018C48.0018 20.0322 47.8665 20.0192 47.7378 19.9799C47.6091 19.9406 47.4897 19.8756 47.3867 19.7891L46 18.709V46C46 46.2652 45.8946 46.5195 45.7071 46.7071C45.5196 46.8946 45.2652 47 45 47H31.1582C31.0502 47.0178 30.94 47.0178 30.832 47H19.1582C19.0502 47.0178 18.94 47.0178 18.832 47H5.00001C4.7348 47 4.48046 46.8946 4.29293 46.7071C4.1054 46.5195 4.00004 46.2652 4.00001 46V18.709L2.61329 19.7891C2.51029 19.8756 2.39087 19.9406 2.26219 19.9799C2.13352 20.0192 1.99822 20.0322 1.86441 20.018C1.7306 20.0039 1.60102 19.9628 1.48344 19.8974C1.36587 19.832 1.2627 19.7435 1.18012 19.6372C1.09755 19.531 1.03726 19.4092 1.00287 19.2791C0.968487 19.149 0.960705 19.0133 0.979996 18.8801C0.999286 18.747 1.04525 18.6191 1.11514 18.5041C1.18503 18.3891 1.2774 18.2894 1.38673 18.2109L24.3867 0.310546ZM44 17.1543L25 2.36719L6.00001 17.1543V45H15H18H20H30H32H35H44V17.1543Z" fill="black"/>
</svg>
