<svg width="384" height="294" viewBox="0 0 384 294" fill="none" xmlns="http://www.w3.org/2000/svg">
<circle cx="192" cy="147" r="147" fill="#02171A"/>
<path d="M182.482 225V74.5L215.732 74.25L136.232 168.25L129.232 154.5H261.732V193.25H112.232L92.7324 156.75L187.732 48H230.232V225H182.482Z" fill="white"/>
<path d="M5.59722 93.8782C11.4754 101.533 75.9938 95.4001 88.7622 94.1051C89.9456 93.9851 90.9504 94.9161 90.9504 96.1055C90.9504 96.1055 90.9504 96.1055 90.9504 96.1055C90.9504 96.1055 90.9504 145.904 90.9504 147C90.9504 147.728 90.0994 147.444 89.5271 147.172C89.1863 147.009 88.8776 146.899 88.5 146.902C81.0799 146.954 -3.40787 147.534 0.106628 146.659H0.777906C3.57764 145.608 4.98672 142.845 5.4347 141.793C5.54983 141.523 5.58361 141.262 5.55034 140.97C4.97474 135.918 -0.602095 85.805 5.59722 93.8782Z" fill="#02171A"/>
<path d="M5.59722 199.127C11.4756 191.517 75.9977 197.615 88.7634 198.902C89.9463 199.021 90.9504 198.09 90.9504 196.901V146C90.9504 145.3 90.1622 145.666 89.5927 146.023C89.2084 146.263 88.832 146.421 88.3788 146.418C80.2094 146.36 -3.38971 145.794 0.106628 146.659H0.777906C3.57334 147.703 4.98239 150.442 5.43263 151.492C5.54915 151.763 5.58335 152.027 5.54971 152.32C4.97064 157.374 -0.599811 207.149 5.59722 199.127Z" fill="#02171A"/>
<path d="M378.4 93.8782C372.518 101.533 307.965 95.4001 295.189 94.1051C294.005 93.9851 293 94.9161 293 96.1055C293 96.1055 293 96.1055 293 96.1055C293 96.1055 293 145.904 293 147C293 147.728 293.852 147.444 294.425 147.171C294.765 147.009 295.074 146.899 295.451 146.902C302.872 146.954 387.41 147.534 383.893 146.659H383.222C380.42 145.608 379.011 142.845 378.562 141.793C378.447 141.523 378.413 141.262 378.447 140.97C379.023 135.918 384.602 85.805 378.4 93.8782Z" fill="#02171A"/>
<path d="M378.4 199.127C372.518 191.517 307.961 197.615 295.188 198.902C294.005 199.021 293 198.09 293 196.901V146C293 145.299 293.789 145.666 294.359 146.023C294.743 146.263 295.119 146.421 295.572 146.418C303.742 146.36 387.392 145.794 383.893 146.659H383.222C380.425 147.703 379.015 150.442 378.564 151.492C378.448 151.763 378.414 152.027 378.447 152.32C379.027 157.374 384.6 207.149 378.4 199.127Z" fill="#02171A"/>
<path d="M53 103C40.5 106 9.49995 103.5 7.99995 101C6.49995 98.5 13 138.5 11 143.5" stroke="#FAFDF4" stroke-width="2"/>
<path d="M331 103.221C343.5 106.221 374.5 103.721 376 101.221C377.5 98.7206 370 140 372 145.721" stroke="#FAFDF4" stroke-width="2"/>
<path fill-rule="evenodd" clip-rule="evenodd" d="M330 147H332C332 69.6801 269.32 7 192 7C114.68 7 52 69.6801 52 147H54C54 70.7847 115.785 9 192 9C268.215 9 330 70.7847 330 147Z" fill="#FAFDF4"/>
<path d="M307.61 129.252C307.627 129.252 307.643 129.252 307.66 129.252C307.671 129.687 307.631 130.117 307.595 130.55C307.591 130.59 307.588 130.631 307.584 130.673C307.531 131.314 307.471 131.954 307.404 132.594C307.37 132.921 307.339 133.249 307.308 133.577C307.201 134.722 307.077 135.863 306.928 137.002C306.92 137.06 306.913 137.117 306.905 137.175C306.883 137.339 306.862 137.502 306.84 137.665C306.833 137.712 306.827 137.76 306.821 137.809C306.781 138.101 306.735 138.392 306.685 138.683C306.656 138.853 306.634 139.024 306.613 139.195C306.582 139.43 306.543 139.658 306.488 139.889C306.459 140.023 306.441 140.158 306.423 140.294C306.373 140.652 306.308 141.007 306.242 141.362C306.232 141.417 306.221 141.472 306.211 141.528C306.179 141.697 306.147 141.865 306.114 142.034C306.098 142.119 306.098 142.119 306.081 142.206C305.976 142.74 305.852 143.269 305.724 143.799C305.708 143.868 305.708 143.868 305.691 143.938C305.533 144.597 305.369 145.252 305.167 145.898C305.156 145.932 305.146 145.966 305.135 146C305.084 146.164 305.033 146.327 304.981 146.489C304.935 146.634 304.891 146.778 304.849 146.924C304.683 147.495 304.485 148.048 304.266 148.602C304.209 148.747 304.156 148.893 304.102 149.039C303.964 149.415 303.804 149.779 303.628 150.14C303.56 150.279 303.495 150.42 303.429 150.56C302.357 152.831 301.022 154.826 298.833 156.153C298.79 156.182 298.746 156.21 298.701 156.24C297.86 156.78 296.936 157.195 296.002 157.547C295.897 157.588 295.793 157.631 295.69 157.676C295.026 157.961 294.337 158.17 293.647 158.383C293.591 158.4 293.535 158.418 293.478 158.435C293.148 158.537 292.818 158.632 292.484 158.72C292.094 158.825 291.706 158.935 291.318 159.049C290.884 159.176 290.448 159.293 290.009 159.405C289.259 159.596 288.521 159.814 287.783 160.048C287.604 160.104 287.425 160.159 287.245 160.213C287.135 160.247 287.024 160.281 286.914 160.315C286.878 160.326 286.841 160.338 286.804 160.349C286.087 160.572 285.402 160.845 284.72 161.157C284.683 161.174 284.645 161.192 284.607 161.209C283.791 161.588 283.045 162.043 282.376 162.643C282.301 162.709 282.225 162.774 282.149 162.839C282.02 162.951 281.896 163.066 281.778 163.188C281.808 163.05 281.851 162.936 281.918 162.811C281.991 162.669 282.053 162.529 282.108 162.38C282.227 162.076 282.385 161.792 282.541 161.506C282.664 161.278 282.778 161.048 282.88 160.81C282.924 160.713 282.973 160.623 283.028 160.532C283.126 160.371 283.126 160.371 283.187 160.214C283.294 159.963 283.427 159.725 283.558 159.485C283.586 159.434 283.614 159.382 283.643 159.329C283.986 158.707 284.351 158.098 284.72 157.491C284.746 157.448 284.772 157.405 284.799 157.361C285.692 155.892 285.692 155.892 286.139 155.273C286.222 155.155 286.299 155.034 286.375 154.912C286.976 153.966 287.671 153.073 288.361 152.19C288.403 152.136 288.444 152.081 288.486 152.027C288.753 151.679 289.028 151.338 289.308 151.001C289.383 150.91 289.458 150.82 289.533 150.729C289.57 150.684 289.607 150.639 289.645 150.592C289.719 150.502 289.793 150.412 289.866 150.322C290.085 150.052 290.312 149.793 290.55 149.539C290.744 149.331 290.925 149.115 291.104 148.894C291.308 148.642 291.518 148.404 291.752 148.177C291.825 148.106 291.897 148.035 291.97 147.964C292.023 147.912 292.023 147.912 292.077 147.859C292.174 147.759 292.265 147.657 292.356 147.552C292.553 147.328 292.762 147.117 292.973 146.908C293.033 146.849 293.033 146.849 293.093 146.788C293.176 146.706 293.259 146.623 293.342 146.541C293.469 146.416 293.595 146.29 293.721 146.165C293.802 146.084 293.883 146.003 293.964 145.923C294.002 145.886 294.039 145.849 294.077 145.811C294.281 145.609 294.49 145.416 294.708 145.229C294.805 145.145 294.9 145.059 294.993 144.971C295.026 144.94 295.059 144.909 295.093 144.877C295.126 144.846 295.159 144.816 295.193 144.784C295.454 144.538 295.718 144.298 295.991 144.065C296.021 144.039 296.051 144.013 296.083 143.986C296.17 143.911 296.258 143.837 296.346 143.762C296.375 143.737 296.404 143.712 296.434 143.687C296.491 143.638 296.548 143.59 296.605 143.541C296.662 143.494 296.718 143.446 296.773 143.397C296.977 143.223 296.977 143.223 297.088 143.223C297.088 143.19 297.088 143.158 297.088 143.124C297.175 143.057 297.262 142.991 297.352 142.926C297.515 142.805 297.674 142.679 297.833 142.551C298.514 142.007 299.211 141.488 299.93 140.994C299.971 140.965 300.012 140.937 300.054 140.908C300.181 140.821 300.308 140.734 300.435 140.647C300.474 140.62 300.513 140.593 300.553 140.566C300.773 140.417 300.994 140.279 301.227 140.151C300.899 140.255 300.591 140.398 300.279 140.542C300.249 140.556 300.218 140.57 300.186 140.585C299.588 140.861 299.008 141.166 298.434 141.489C298.373 141.523 298.311 141.557 298.25 141.592C298.078 141.688 297.907 141.786 297.736 141.885C297.674 141.922 297.674 141.922 297.61 141.958C297.076 142.267 296.55 142.579 296.04 142.926C295.981 142.965 295.922 143.004 295.863 143.042C295.46 143.306 295.065 143.578 294.674 143.859C294.6 143.913 294.526 143.966 294.451 144.018C294.151 144.234 293.856 144.456 293.563 144.681C293.455 144.765 293.346 144.847 293.237 144.929C292.886 145.193 292.55 145.469 292.218 145.755C292.069 145.883 291.917 146.008 291.764 146.131C291.502 146.342 291.253 146.564 291.004 146.79C290.919 146.867 290.833 146.943 290.748 147.019C290.707 147.056 290.666 147.093 290.623 147.131C290.517 147.225 290.41 147.317 290.302 147.409C290.119 147.567 289.949 147.736 289.78 147.909C289.684 148.002 289.588 148.088 289.486 148.174C289.201 148.42 288.938 148.686 288.672 148.951C288.582 149.041 288.492 149.13 288.402 149.22C288.136 149.484 287.873 149.748 287.629 150.032C287.545 150.129 287.456 150.219 287.363 150.308C287.204 150.464 287.055 150.625 286.91 150.794C286.799 150.92 286.685 151.042 286.572 151.165C286.37 151.385 286.179 151.611 285.991 151.843C285.845 152.019 285.694 152.191 285.543 152.364C285.165 152.794 284.802 153.234 284.453 153.689C284.332 153.847 284.208 154.002 284.081 154.156C283.872 154.415 283.678 154.683 283.484 154.953C283.308 155.196 283.13 155.438 282.95 155.679C282.664 156.062 282.389 156.448 282.127 156.847C282.068 156.935 282.009 157.022 281.95 157.11C281.675 157.517 281.406 157.928 281.139 158.341C281.09 158.417 281.04 158.493 280.99 158.568C280.729 158.969 280.488 159.383 280.244 159.794C280.043 160.134 279.838 160.473 279.633 160.81C279.601 160.794 279.568 160.778 279.534 160.761C279.502 160.627 279.502 160.627 279.475 160.447C279.47 160.415 279.465 160.382 279.46 160.349C279.443 160.242 279.428 160.134 279.412 160.027C279.407 159.99 279.401 159.953 279.396 159.914C279.368 159.723 279.341 159.532 279.314 159.34C279.296 159.211 279.278 159.082 279.258 158.953C279.002 157.248 279.043 155.431 279.284 153.726C279.295 153.645 279.295 153.645 279.305 153.563C279.454 152.418 279.709 151.29 280.1 150.202C280.15 150.059 280.192 149.914 280.235 149.769C280.314 149.511 280.41 149.267 280.517 149.02C280.582 148.869 280.639 148.716 280.696 148.561C280.833 148.206 281.003 147.872 281.178 147.534C281.227 147.439 281.274 147.342 281.321 147.246C281.985 145.878 282.85 144.59 283.856 143.448C283.922 143.372 283.987 143.294 284.051 143.216C284.373 142.827 284.723 142.468 285.082 142.111C285.105 142.088 285.129 142.065 285.153 142.04C285.432 141.763 285.717 141.496 286.017 141.241C286.085 141.18 286.154 141.118 286.222 141.056C286.801 140.546 287.432 140.101 288.061 139.656C288.092 139.634 288.124 139.612 288.156 139.589C288.46 139.372 288.766 139.171 289.098 138.999C289.313 138.883 289.524 138.76 289.735 138.637C290.165 138.389 290.595 138.163 291.054 137.972C291.141 137.931 291.228 137.891 291.315 137.851C291.545 137.746 291.777 137.66 292.015 137.576C292.146 137.527 292.271 137.471 292.397 137.411C292.734 137.255 293.085 137.141 293.436 137.021C293.676 136.939 293.914 136.852 294.152 136.764C294.924 136.479 295.7 136.2 296.493 135.977C296.811 135.887 297.12 135.778 297.431 135.666C297.625 135.597 297.82 135.533 298.017 135.47C298.298 135.377 298.572 135.274 298.846 135.162C299.036 135.085 299.227 135.015 299.421 134.95C300.297 134.654 301.157 134.29 301.976 133.862C302.086 133.804 302.197 133.748 302.307 133.691C304.305 132.666 306.157 131.322 307.451 129.471C307.503 129.397 307.557 129.325 307.61 129.252Z" fill="#3EB14A"/>
<path d="M314.005 155.955C314.057 155.986 314.057 155.986 314.11 156.018C314.652 156.346 315.178 156.682 315.671 157.083C315.717 157.121 315.763 157.158 315.81 157.197C316.414 157.691 316.998 158.193 317.514 158.778C317.558 158.827 317.602 158.875 317.647 158.925C318.805 160.231 319.712 161.693 320.414 163.28C320.432 163.321 320.45 163.362 320.469 163.404C320.696 163.921 320.881 164.438 321.034 164.98C321.092 165.183 321.158 165.383 321.223 165.584C321.422 166.241 321.533 166.912 321.614 167.59C321.629 167.713 321.645 167.836 321.66 167.959C321.754 168.721 321.759 169.467 321.723 170.233C321.516 170.215 321.381 169.981 321.249 169.831C320.269 168.742 318.692 167.987 317.226 167.888C317.128 167.886 317.031 167.885 316.933 167.885C316.876 167.876 316.818 167.867 316.759 167.857C315.988 167.739 315.198 167.856 314.437 167.971C314.402 167.976 314.368 167.981 314.332 167.986C313.568 168.096 312.807 168.251 312.075 168.494C311.919 168.546 311.76 168.59 311.601 168.636C311.302 168.722 311.009 168.822 310.716 168.927C310.5 169.001 310.28 169.065 310.06 169.129C309.893 169.18 309.729 169.237 309.565 169.296C309.25 169.408 308.931 169.502 308.608 169.593C308.455 169.636 308.304 169.683 308.152 169.732C307.929 169.803 307.704 169.857 307.476 169.91C307.345 169.94 307.345 169.94 307.198 169.999C307.025 170.059 306.858 170.087 306.678 170.116C306.521 170.142 306.366 170.175 306.211 170.208C305.132 170.438 304.022 170.459 302.922 170.344C302.836 170.336 302.75 170.329 302.663 170.322C302.234 170.283 301.828 170.165 301.417 170.04C301.331 170.014 301.245 169.989 301.159 169.965C300.722 169.839 300.314 169.662 299.903 169.472C299.867 169.455 299.831 169.439 299.794 169.422C297.981 168.584 296.192 167.336 294.795 165.904C294.652 165.762 294.498 165.636 294.344 165.507C293.968 165.187 293.615 164.839 293.262 164.495C293.127 164.364 292.992 164.235 292.851 164.11C292.969 163.97 293.081 163.877 293.241 163.787C293.283 163.764 293.325 163.74 293.368 163.716C293.412 163.691 293.456 163.667 293.501 163.641C293.592 163.59 293.684 163.539 293.775 163.487C293.818 163.463 293.862 163.438 293.907 163.413C294.044 163.336 294.179 163.256 294.314 163.175C295.544 162.467 296.9 161.94 298.265 161.547C298.355 161.52 298.445 161.492 298.535 161.463C298.576 161.45 298.618 161.438 298.66 161.424C298.737 161.399 298.814 161.374 298.891 161.347C299.137 161.262 299.377 161.213 299.634 161.172C299.763 161.152 299.763 161.152 299.908 161.095C300.081 161.032 300.247 161.005 300.429 160.976C300.59 160.948 300.75 160.916 300.911 160.883C301.312 160.8 301.71 160.734 302.118 160.69C302.198 160.681 302.278 160.671 302.357 160.662C303.284 160.556 304.212 160.501 305.146 160.512C305.222 160.512 305.298 160.512 305.375 160.513C306.372 160.519 307.363 160.588 308.351 160.734C308.402 160.741 308.452 160.748 308.504 160.756C309.858 160.956 311.16 161.304 312.46 161.733C312.012 161.409 311.551 161.114 311.077 160.829C311.04 160.807 311.003 160.785 310.965 160.762C309.353 159.795 307.542 158.918 305.707 158.498C305.584 158.469 305.464 158.439 305.343 158.405C304.877 158.275 304.413 158.176 303.936 158.097C303.724 158.062 303.515 158.019 303.306 157.975C302.391 157.793 301.433 157.723 300.502 157.723C300.419 157.722 300.335 157.721 300.252 157.719C299.09 157.708 297.942 157.812 296.798 157.999C296.69 158.017 296.582 158.032 296.474 158.048C295.809 158.145 295.161 158.305 294.51 158.469C294.558 158.25 294.702 158.137 294.857 157.984C294.89 157.952 294.922 157.92 294.956 157.887C295.723 157.146 296.597 156.531 297.505 155.972C297.584 155.923 297.662 155.872 297.739 155.821C298.362 155.416 299.038 155.108 299.726 154.827C299.819 154.789 299.912 154.75 300.005 154.711C300.341 154.573 300.678 154.455 301.029 154.355C301.161 154.317 301.291 154.276 301.421 154.233C301.978 154.057 302.554 153.928 303.132 153.84C303.196 153.829 303.259 153.819 303.324 153.808C304.21 153.659 305.112 153.603 306.013 153.632C306.117 153.636 306.222 153.638 306.327 153.64C306.396 153.642 306.466 153.644 306.536 153.645C306.571 153.646 306.606 153.647 306.642 153.647C306.835 153.652 307.018 153.669 307.208 153.704C307.305 153.711 307.305 153.711 307.404 153.719C308.01 153.768 308.601 153.879 309.193 154.016C309.305 154.042 309.416 154.067 309.528 154.092C310.1 154.221 310.65 154.381 311.186 154.625C311.209 154.619 311.232 154.614 311.256 154.608C311.452 154.677 311.643 154.76 311.836 154.839C311.915 154.871 311.915 154.871 311.996 154.904C312.7 155.193 313.354 155.563 314.005 155.955Z" fill="#3EB14A"/>
<path d="M268.14 111.043C268.357 110.741 268.573 110.438 268.789 110.135C269.57 109.039 270.354 107.947 271.203 106.903C271.233 106.867 271.262 106.83 271.293 106.792C271.763 106.213 271.763 106.213 271.995 106.177C271.995 106.235 271.996 106.294 271.996 106.354C272.026 108.853 272.619 111.005 273.742 113.244C273.767 113.293 273.791 113.342 273.817 113.393C273.961 113.676 274.12 113.938 274.302 114.199C274.406 114.348 274.501 114.503 274.596 114.659C275.247 115.693 275.963 116.641 276.769 117.563C276.82 117.622 276.871 117.68 276.924 117.741C278.021 118.993 279.17 120.192 280.33 121.386C282.02 123.126 282.02 123.126 282.681 123.835C282.726 123.883 282.771 123.931 282.817 123.98C283.055 124.238 283.269 124.503 283.473 124.788C283.582 124.939 283.702 125.078 283.826 125.217C284.81 126.356 285.66 127.612 286.394 128.919C286.433 128.988 286.472 129.056 286.512 129.127C286.738 129.539 286.93 129.954 287.104 130.389C287.184 130.591 287.27 130.79 287.357 130.99C288.156 132.951 288.402 135.013 288.12 137.084C288.114 137.131 288.108 137.178 288.101 137.226C287.895 138.753 287.292 140.128 286.621 141.496C286.594 141.556 286.566 141.615 286.538 141.677C286.409 141.931 286.259 142.168 286.105 142.407C286.072 142.458 286.039 142.509 286.005 142.561C285.644 143.117 285.267 143.66 284.882 144.199C284.764 144.366 284.647 144.534 284.529 144.701C284.147 145.242 283.752 145.754 283.291 146.231C283.251 146.272 283.212 146.314 283.171 146.356C282.857 146.67 282.542 146.903 282.079 146.928C282.025 146.931 281.971 146.935 281.916 146.938C281.556 146.931 281.297 146.723 281.035 146.496C280.463 145.906 280.002 145.241 279.549 144.56C279.474 144.447 279.398 144.335 279.321 144.223C278.524 143.051 277.718 141.839 277.12 140.555C277.028 140.366 276.928 140.182 276.826 139.997C276.467 139.343 276.155 138.674 275.857 137.992C275.835 137.941 275.813 137.89 275.79 137.838C275.46 137.087 275.171 136.325 274.903 135.551C274.846 135.386 274.788 135.222 274.73 135.058C274.507 134.416 274.32 133.772 274.155 133.115C274.078 132.818 273.991 132.525 273.906 132.231C273.845 131.996 273.804 131.762 273.763 131.523C273.731 131.344 273.699 131.165 273.667 130.986C273.64 130.832 273.612 130.677 273.585 130.522C273.566 130.416 273.547 130.31 273.528 130.205C273.422 129.614 273.323 129.026 273.271 128.428C273.266 128.37 273.26 128.312 273.254 128.252C273.062 126.161 273.098 124.083 273.409 122.014C272.477 124.613 272.251 127.532 272.355 130.291C272.36 130.426 272.363 130.561 272.366 130.696C272.392 131.79 272.485 132.882 272.589 133.972C272.603 134.124 272.617 134.275 272.63 134.427C272.713 135.36 272.82 136.297 273 137.218C273.031 137.426 273.031 137.426 272.95 137.539C272.994 137.599 273.038 137.658 273.083 137.72C273.105 137.853 273.105 137.853 273.117 138.02C273.166 138.554 273.263 139.08 273.357 139.609C273.388 139.786 273.419 139.963 273.45 140.14C273.54 140.658 273.634 141.171 273.766 141.68C273.843 141.993 273.89 142.311 273.942 142.628C273.999 142.973 274.075 143.31 274.16 143.65C274.252 144.025 274.325 144.404 274.402 144.782C274.466 145.094 274.534 145.403 274.61 145.712C274.719 146.146 274.807 146.583 274.896 147.021C274.96 147.331 275.027 147.639 275.103 147.947C275.218 148.405 275.309 148.868 275.402 149.331C275.465 149.642 275.531 149.95 275.611 150.257C275.776 150.887 275.841 151.534 275.921 152.177C275.929 152.241 275.937 152.305 275.946 152.371C276.059 153.363 276.059 153.363 275.783 153.749C275.731 153.811 275.678 153.872 275.623 153.935C275.191 153.895 274.89 153.732 274.52 153.518C274.46 153.484 274.399 153.449 274.337 153.414C274.209 153.342 274.082 153.269 273.955 153.195C273.763 153.085 273.572 152.976 273.38 152.867C273.255 152.796 273.13 152.725 273.005 152.653C272.949 152.622 272.893 152.59 272.836 152.557C271.962 152.053 271.125 151.5 270.305 150.914C270.216 150.85 270.127 150.787 270.038 150.723C269.853 150.592 269.668 150.459 269.483 150.327C269.296 150.194 269.109 150.06 268.922 149.928C267.905 149.206 266.903 148.484 265.985 147.637C265.923 147.581 265.861 147.525 265.797 147.468C265.647 147.333 265.498 147.197 265.351 147.059C265.275 146.989 265.275 146.989 265.198 146.917C264.825 146.566 264.481 146.199 264.15 145.809C264.049 145.699 263.947 145.589 263.846 145.479C262.819 144.321 262.025 143.008 261.393 141.608C261.37 141.556 261.347 141.505 261.323 141.452C260.838 140.372 260.47 139.269 260.225 138.116C260.196 137.997 260.166 137.879 260.135 137.762C260.057 137.446 259.995 137.13 259.937 136.811C259.928 136.763 259.919 136.716 259.909 136.667C259.888 136.548 259.873 136.429 259.858 136.31C259.885 136.273 259.912 136.236 259.939 136.197C259.901 136.17 259.863 136.142 259.824 136.114C259.805 135.968 259.793 135.821 259.785 135.674C259.779 135.584 259.773 135.493 259.768 135.4C259.765 135.354 259.762 135.307 259.759 135.259C259.746 135.043 259.727 134.828 259.709 134.613C259.676 134.162 259.667 133.718 259.678 133.268C259.679 133.219 259.68 133.17 259.681 133.12C259.717 131.589 259.884 130.094 260.156 128.592C260.186 128.424 260.212 128.256 260.236 128.088C260.284 127.762 260.35 127.442 260.421 127.121C260.435 127.06 260.448 126.999 260.462 126.936C260.585 126.389 260.734 125.852 260.892 125.314C260.933 125.173 260.971 125.031 261.008 124.888C261.198 124.165 261.451 123.474 261.723 122.779C261.869 122.404 262.004 122.031 262.117 121.643C262.181 121.436 262.267 121.242 262.357 121.046C262.395 120.963 262.433 120.88 262.471 120.795C262.621 120.473 262.773 120.152 262.928 119.832C263.034 119.612 263.133 119.391 263.226 119.164C263.35 118.868 263.493 118.586 263.645 118.304C263.672 118.254 263.698 118.204 263.726 118.153C263.783 118.047 263.839 117.942 263.896 117.837C263.981 117.68 264.065 117.523 264.149 117.366C264.316 117.054 264.484 116.744 264.654 116.434C264.691 116.365 264.691 116.365 264.729 116.296C264.916 115.952 265.111 115.612 265.309 115.274C265.345 115.213 265.381 115.152 265.418 115.089C266.247 113.686 267.189 112.365 268.14 111.043Z" fill="#3EB14A"/>
<path d="M121.592 50.2082C121.598 50.195 121.604 50.1819 121.61 50.1683C121.719 50.2044 121.828 50.2408 121.937 50.2772C121.981 50.292 121.981 50.292 122.027 50.3071C122.513 50.4703 122.987 50.6629 123.456 50.8691C123.485 50.8818 123.514 50.8945 123.544 50.9076C124.274 51.23 124.996 51.5708 125.719 51.9113C125.814 51.9563 125.91 52.0012 126.006 52.046C126.86 52.4463 127.699 52.8566 128.475 53.398C128.586 53.4733 128.7 53.5433 128.816 53.6124C129.164 53.8215 129.498 54.0483 129.831 54.281C129.876 54.3124 129.921 54.3438 129.967 54.3762C130.204 54.5428 130.429 54.7153 130.647 54.9058C130.765 55.0083 130.888 55.1024 131.012 55.1978C131.357 55.4686 131.675 55.7668 131.992 56.0686C132.089 56.16 132.186 56.2508 132.284 56.3414C132.825 56.8486 132.825 56.8486 133.036 57.138C133.118 57.2431 133.209 57.3337 133.303 57.4277C134.375 58.5321 135.269 60.0395 135.826 61.4633C135.875 61.5869 135.927 61.7076 135.981 61.8289C136.077 62.0466 136.155 62.2671 136.228 62.4933C136.247 62.5535 136.247 62.5535 136.267 62.6149C136.384 62.9873 136.476 63.361 136.554 63.7431C136.562 63.779 136.569 63.8149 136.577 63.8519C136.764 64.732 136.857 65.623 136.86 66.5216C136.86 66.6316 136.862 66.7416 136.863 66.8516C136.868 67.3243 136.854 67.7911 136.82 68.2623C136.816 68.3389 136.811 68.4154 136.807 68.4919C136.742 69.5813 136.647 70.699 136.445 71.7719C136.384 72.1004 136.349 72.4315 136.311 72.7634C136.272 73.1034 136.223 73.4406 136.166 73.778C136.144 73.929 136.129 74.0777 136.118 74.2298C136.107 74.3646 136.09 74.4984 136.074 74.6326C136.058 74.7596 136.043 74.8867 136.028 75.0137C136.024 75.0473 136.02 75.0809 136.016 75.1155C135.898 76.1193 135.834 77.1365 135.863 78.1481C135.865 78.2161 135.867 78.2841 135.869 78.3521C135.87 78.4024 135.87 78.4024 135.872 78.4537C135.874 78.5482 135.875 78.6426 135.876 78.7371C135.882 79.102 135.909 79.4546 135.964 79.8156C135.971 79.8661 135.978 79.9165 135.985 79.9684C136.062 80.5147 136.172 81.0494 136.325 81.58C136.368 81.7308 136.393 81.8644 136.393 82.0204C135.428 81.5549 134.544 80.9703 133.733 80.2715C133.679 80.2273 133.626 80.1832 133.572 80.1393C133.043 79.704 132.55 79.2403 132.088 78.7351C131.984 78.622 131.877 78.5126 131.769 78.4036C131.359 77.9897 130.999 77.5505 130.666 77.0736C130.555 76.9144 130.44 76.7615 130.317 76.6114C129.855 76.0329 129.493 75.3717 129.137 74.7253C129.123 74.6986 129.108 74.672 129.093 74.6445C128.779 74.0751 128.518 73.4838 128.276 72.8811C128.233 72.7737 128.19 72.6666 128.146 72.5594C128.114 72.4801 128.082 72.4008 128.05 72.3215C128.027 72.2665 128.027 72.2665 128.005 72.2104C127.916 71.9888 127.843 71.7671 127.779 71.5371C127.739 71.3926 127.692 71.2504 127.645 71.1077C127.349 70.1728 127.193 69.1926 127.059 68.2242C127.051 68.1726 127.044 68.121 127.036 68.0678C126.992 67.7454 126.968 67.4248 126.952 67.1C126.949 67.041 126.946 66.9819 126.943 66.9229C126.926 66.607 126.911 66.2911 126.902 65.9749C126.901 65.9207 126.899 65.8665 126.897 65.8107C126.898 65.6645 126.913 65.5266 126.931 65.3816C126.935 65.2979 126.939 65.2142 126.942 65.1304C126.975 64.2095 127.036 63.2125 127.278 62.3207C127.329 62.1314 127.373 61.9406 127.418 61.7499C127.436 61.6758 127.453 61.6016 127.471 61.5275C127.484 61.4724 127.497 61.4173 127.51 61.3605C127.281 62.0098 127.073 62.6549 126.922 63.3272C126.912 63.3714 126.902 63.4157 126.892 63.4613C126.69 64.3417 126.528 65.223 126.433 66.1218C126.425 66.1975 126.425 66.1975 126.417 66.2747C126.4 66.4413 126.384 66.6081 126.369 66.7749C126.366 66.8092 126.363 66.8435 126.36 66.8788C126.268 67.8849 126.237 68.8964 126.301 69.9058C126.308 70.0165 126.314 70.1271 126.32 70.2378C126.404 71.6942 126.635 73.1383 126.996 74.5528C127.03 74.6908 127.062 74.8291 127.093 74.9678C127.157 75.2373 127.241 75.4995 127.327 75.7626C127.383 75.9319 127.435 76.1011 127.482 76.2728C127.565 76.564 127.669 76.8476 127.772 77.1322C127.791 77.1855 127.811 77.2389 127.83 77.2938C127.939 77.5946 128.055 77.8891 128.188 78.1803C128.215 78.242 128.243 78.3036 128.27 78.3653C128.354 78.5522 128.438 78.7386 128.523 78.9249C128.544 78.971 128.565 79.0172 128.587 79.0647C129.273 80.535 130.161 81.8799 131.124 83.184C131.117 83.1972 131.111 83.2103 131.105 83.2239C130.343 82.8934 129.625 82.5185 128.921 82.0761C128.887 82.0548 128.853 82.0335 128.818 82.0115C128.185 81.6125 127.577 81.1864 126.988 80.7237C126.965 80.7054 126.942 80.6871 126.918 80.6682C126.571 80.3966 126.229 80.1207 125.89 79.84C125.852 79.8087 125.814 79.7774 125.775 79.7451C125.564 79.5689 125.366 79.3856 125.175 79.1884C125.099 79.1106 125.022 79.0355 124.943 78.961C124.622 78.6567 124.317 78.3372 124.015 78.0149C123.981 77.9786 123.946 77.9424 123.911 77.905C123.707 77.6869 123.523 77.4633 123.351 77.2193C123.262 77.0956 123.16 76.9852 123.058 76.8718C122.795 76.5532 122.562 76.2209 122.34 75.8725C122.311 75.8276 122.282 75.7827 122.252 75.7364C122.09 75.4827 121.939 75.2271 121.803 74.9587C121.774 74.9039 121.745 74.8492 121.716 74.7944C121.56 74.4942 121.412 74.1938 121.281 73.8817C121.264 73.843 121.247 73.8043 121.23 73.7644C120.981 73.1921 120.761 72.6006 120.601 71.9976C120.587 71.9471 120.572 71.8965 120.556 71.8444C120.416 71.3617 120.334 70.8753 120.26 70.3789C120.245 70.2821 120.229 70.1856 120.213 70.0892C120.147 69.7038 120.134 69.3266 120.131 68.9372C120.129 68.8078 120.122 68.6785 120.117 68.5492C120.109 68.2151 120.146 67.8881 120.185 67.5571C120.195 67.4705 120.203 67.3838 120.211 67.297C120.299 66.4029 120.532 65.5394 120.834 64.6965C120.874 64.5837 120.913 64.4706 120.952 64.3574C121.167 63.7523 121.432 63.1736 121.704 62.5927C121.724 62.5502 121.744 62.5076 121.764 62.4638C121.952 62.0625 122.14 61.6616 122.33 61.2611C122.821 60.2211 123.278 59.1981 123.604 58.0934C123.64 57.9754 123.677 57.8575 123.714 57.7397C123.972 56.8962 124.194 55.8858 124.086 55.0026C124.089 54.9674 124.091 54.9322 124.094 54.896C124.143 53.8663 123.747 52.7237 123.218 51.8576C123.192 51.8129 123.165 51.7681 123.138 51.7221C122.9 51.3344 122.614 51.0343 122.278 50.729C122.242 50.6954 122.205 50.6619 122.167 50.6274C121.985 50.4674 121.8 50.3319 121.592 50.2082Z" fill="#3EB14A"/>
<path d="M85.0411 110.711C84.9635 110.49 85.0437 110.311 85.1186 110.101C85.1328 110.06 85.1469 110.02 85.1614 109.978C85.1941 109.884 85.227 109.791 85.2602 109.698C85.3234 109.52 85.3857 109.342 85.448 109.164C85.6732 108.524 85.9042 107.888 86.1601 107.26C86.1901 107.186 86.1901 107.186 86.2207 107.111C86.3209 106.869 86.4307 106.643 86.5639 106.416C86.5931 106.33 86.6223 106.243 86.6505 106.156C86.8081 105.728 87.0386 105.328 87.2694 104.935C87.3308 104.826 87.3886 104.715 87.4438 104.604C87.5385 104.412 87.6406 104.226 87.7471 104.04C87.7675 104.005 87.7879 103.969 87.8089 103.933C88.7911 102.227 89.8809 100.627 91.1883 99.1451C91.2281 99.0995 91.268 99.0539 91.309 99.0069C91.5444 98.7401 91.79 98.4865 92.0442 98.237C92.1613 98.122 92.2773 98.006 92.3924 97.8891C92.4231 97.8579 92.4539 97.8267 92.4856 97.7946C92.5764 97.701 92.5764 97.701 92.6642 97.5867C92.6915 97.5565 92.7188 97.5263 92.7469 97.4951C92.783 97.4969 92.8191 97.4986 92.8562 97.5004C92.872 97.4696 92.8879 97.4387 92.9042 97.4069C92.9799 97.284 93.0583 97.2036 93.166 97.107C93.2038 97.073 93.2416 97.0391 93.2805 97.0041C93.3207 96.9687 93.3609 96.9332 93.4023 96.8966C93.4434 96.8602 93.4844 96.8237 93.5267 96.7861C93.8035 96.5428 94.0855 96.3177 94.3895 96.1079C94.5202 96.0182 94.5202 96.0182 94.6408 95.9027C94.7453 95.8125 94.7453 95.8125 94.8545 95.8178C94.8562 95.7823 94.858 95.7468 94.8597 95.7102C94.9572 95.6348 95.0585 95.5642 95.1611 95.4957C95.1933 95.4741 95.2256 95.4525 95.2588 95.4302C95.3709 95.3553 95.4835 95.281 95.5961 95.2067C95.6391 95.1781 95.6821 95.1495 95.7264 95.12C96.2376 94.7798 96.7477 94.4473 97.2899 94.1565C97.3573 94.1188 97.4245 94.081 97.4918 94.0431C98.8101 93.3018 100.197 92.6935 101.653 92.2652C101.773 92.2252 101.892 92.1849 102.011 92.1444C102.406 92.0158 102.807 91.9218 103.212 91.8307C103.303 91.8102 103.394 91.789 103.484 91.7677C103.904 91.6713 104.328 91.6105 104.754 91.553C104.79 91.548 104.826 91.5431 104.862 91.538C106.051 91.3743 107.208 91.3203 108.407 91.3866C108.472 91.3899 108.536 91.3932 108.603 91.3966C109.593 91.4483 110.561 91.5359 111.536 91.7205C111.651 91.7411 111.765 91.7616 111.879 91.782C112.594 91.9125 112.594 91.9125 112.785 91.9714C112.953 92.0199 113.127 92.0269 113.3 92.0421C113.71 92.0815 114.109 92.1515 114.511 92.2369C116.082 92.5676 117.762 92.5991 119.338 92.3151C119.387 92.3068 119.435 92.2985 119.485 92.2899C121.22 91.9835 122.911 91.1351 123.938 89.6913C123.964 89.6533 123.99 89.6154 124.016 89.5763C124.033 89.6127 124.049 89.649 124.066 89.6865C124.003 89.826 123.938 89.9574 123.865 90.0913C123.843 90.1311 123.821 90.1708 123.799 90.2118C123.569 90.6235 123.294 90.9924 122.999 91.3604C122.967 91.4008 122.935 91.4413 122.902 91.4829C122.704 91.7274 122.482 91.9465 122.256 92.1659C122.172 92.2492 122.091 92.3352 122.013 92.4235C121.844 92.61 121.647 92.7513 121.445 92.9028C121.396 92.9411 121.347 92.9793 121.296 93.0188C120.839 93.3683 120.357 93.6657 119.861 93.9583C119.802 93.9937 119.743 94.0291 119.682 94.0655C119.431 94.2103 119.169 94.3286 118.906 94.4512C118.834 94.4853 118.762 94.5195 118.691 94.5537C118.617 94.5889 118.542 94.624 118.468 94.6591C118.433 94.6759 118.398 94.6926 118.362 94.7098C118.155 94.8071 117.954 94.8763 117.732 94.9335C117.607 94.9762 117.482 95.0196 117.357 95.0636C115.833 95.5858 114.214 95.9374 112.605 96.062C112.431 96.0767 112.258 96.0965 112.084 96.118C111.29 96.2153 110.491 96.2593 109.692 96.309C109.564 96.317 109.436 96.325 109.308 96.333C109.142 96.3434 108.976 96.3536 108.809 96.3636C108.396 96.389 107.985 96.4206 107.573 96.4675C107.412 96.4823 107.254 96.4859 107.092 96.4863C106.705 96.4928 106.328 96.5461 105.946 96.5983C105.65 96.6384 105.356 96.6722 105.059 96.6943C104.435 96.7414 103.829 96.8255 103.221 96.9749C103.044 97.015 102.869 97.048 102.69 97.0772C102.195 97.1593 101.722 97.2833 101.244 97.4337C101.125 97.471 101.006 97.5076 100.887 97.5441C99.4245 97.9945 98.0522 98.6424 96.8101 99.526C96.7524 99.5669 96.6947 99.6078 96.6353 99.65C96.3243 99.8735 96.0246 100.093 95.7726 100.382C95.738 100.419 95.7034 100.457 95.6678 100.495C95.6318 100.493 95.5957 100.492 95.5586 100.49C95.5351 100.535 95.5351 100.535 95.5111 100.581C95.4327 100.71 95.3443 100.807 95.2401 100.916C94.7727 101.43 94.3466 102.009 94.031 102.627C94.0742 102.584 94.1173 102.542 94.1617 102.499C95.1333 101.55 96.1731 100.728 97.3849 100.093C97.4268 100.071 97.4687 100.049 97.5118 100.027C98.0806 99.7302 98.6471 99.4545 99.2535 99.241C99.4471 99.1722 99.6362 99.0967 99.826 99.0185C100.828 98.6206 101.909 98.3976 102.968 98.2013C103.103 98.1764 103.237 98.1498 103.371 98.1214C107.378 97.3081 111.963 97.8381 115.973 98.4612C115.77 99.291 115.476 100.079 115.138 100.864C115.112 100.924 115.086 100.984 115.059 101.046C114.938 101.323 114.812 101.591 114.657 101.851C114.591 101.968 114.535 102.088 114.48 102.211C114.355 102.485 114.21 102.744 114.055 103.002C114.027 103.05 113.999 103.097 113.969 103.145C112.988 104.763 111.684 106.248 110.12 107.345C110.034 107.407 110.034 107.407 109.947 107.47C109.558 107.746 109.157 107.979 108.731 108.195C108.55 108.288 108.373 108.385 108.198 108.488C108.037 108.567 107.869 108.623 107.701 108.683C107.641 108.706 107.582 108.728 107.521 108.752C104.178 110.013 100.81 109.296 97.4616 108.452C94.508 107.708 91.1776 106.995 88.2539 108.215C88.1462 108.259 88.0368 108.3 87.9268 108.339C87.4204 108.53 86.9652 108.815 86.5371 109.14C86.428 109.214 86.428 109.214 86.3188 109.209C86.2981 109.261 86.2775 109.314 86.2563 109.368C86.1931 109.426 86.1295 109.484 86.0644 109.54C85.6646 109.893 85.3363 110.269 85.0411 110.711Z" fill="#3EB14A"/>
<path d="M95.7007 63.9544C95.8662 63.9024 96.0204 63.8656 96.1925 63.8517C96.2346 63.8483 96.2768 63.8448 96.3202 63.8413C96.3645 63.838 96.4087 63.8348 96.4543 63.8314C96.5002 63.8279 96.5461 63.8244 96.5935 63.8208C96.8894 63.7996 97.1807 63.7946 97.4769 63.8041C97.6514 63.8054 97.8222 63.7928 97.9964 63.7785C98.9122 63.7073 99.835 63.7387 100.751 63.7581C100.822 63.7595 100.892 63.7609 100.965 63.7624C102.006 63.784 103.033 63.8396 104.065 63.9656C104.132 63.9735 104.199 63.9815 104.267 63.9897C105.432 64.1299 106.58 64.3036 107.722 64.5668C107.859 64.5981 107.997 64.6282 108.134 64.6581C109.375 64.9297 110.556 65.3195 111.738 65.7797C111.79 65.7997 111.79 65.7997 111.843 65.8201C112.987 66.2636 114.095 66.7424 115.155 67.365C115.186 67.3833 115.217 67.4015 115.249 67.4203C115.79 67.7389 116.319 68.0679 116.82 68.4486C116.915 68.5206 117.011 68.5907 117.108 68.6598C117.152 68.6915 117.152 68.6915 117.197 68.7239C117.266 68.7721 117.335 68.8191 117.405 68.8653C117.867 69.1783 118.273 69.5561 118.687 69.9298C118.791 70.0234 118.895 70.1162 118.999 70.2087C119.364 70.5322 119.705 70.8721 120.036 71.2298C120.088 71.2834 120.139 71.3368 120.19 71.3902C121.445 72.7004 122.516 74.213 123.29 75.8694C123.364 76.0257 123.441 76.1793 123.52 76.3324C123.736 76.751 123.901 77.1835 124.053 77.63C124.076 77.6964 124.099 77.7628 124.123 77.8311C124.308 78.3628 124.454 78.8978 124.577 79.448C124.587 79.4888 124.596 79.5295 124.605 79.5715C124.773 80.322 124.894 81.067 124.954 81.8367C124.972 82.0441 124.998 82.2488 125.026 82.4548C125.07 82.8248 125.068 83.1863 125.057 83.5583C125.049 83.7945 125.05 84.03 125.053 84.2661C125.062 85.2621 124.975 86.231 124.856 87.2209C124.844 87.3351 124.835 87.4497 124.83 87.5644C124.821 87.7092 124.804 87.8416 124.776 87.9836C124.767 88.0292 124.758 88.0747 124.749 88.1217C124.739 88.17 124.729 88.2182 124.719 88.268C124.639 88.6806 124.571 89.0924 124.516 89.5089C124.454 89.9796 124.364 90.439 124.256 90.9017C124.217 91.068 124.185 91.2339 124.157 91.4022C124.105 91.699 124.035 91.9897 123.961 92.2819C123.933 92.3927 123.905 92.5035 123.877 92.6143C123.863 92.6709 123.849 92.7276 123.834 92.786C123.778 93.0109 123.722 93.2361 123.667 93.4612C123.612 93.6834 123.556 93.9054 123.501 94.1275C123.473 94.2407 123.445 94.3539 123.417 94.4671C123.376 94.6343 123.334 94.8013 123.293 94.9684C123.28 95.0186 123.268 95.0689 123.255 95.1206C123.189 95.3843 123.113 95.6333 123.008 95.8843C122.967 95.6907 122.963 95.5299 122.966 95.3318C122.966 95.2605 122.967 95.1893 122.967 95.1158C122.969 94.9676 122.97 94.8193 122.972 94.671C122.975 94.2435 122.965 93.8203 122.938 93.3942C122.93 93.2592 122.924 93.125 122.922 92.9897C122.916 92.7696 122.9 92.5518 122.881 92.3327C122.877 92.2899 122.874 92.2471 122.87 92.203C122.838 91.842 122.79 91.4847 122.736 91.1267C122.711 90.9511 122.69 90.7759 122.671 90.5993C122.535 89.4511 122.253 88.3245 121.946 87.2155C121.913 87.0943 121.88 86.9729 121.847 86.8515C121.717 86.3704 121.555 85.9082 121.377 85.4442C121.342 85.3475 121.307 85.2507 121.273 85.1537C121.258 85.11 121.243 85.0663 121.227 85.0213C121.196 84.9315 121.165 84.8416 121.136 84.7514C121.039 84.4641 120.922 84.2031 120.781 83.9364C120.696 83.7658 120.646 83.5853 120.587 83.4039C120.528 83.2789 120.464 83.1571 120.4 83.035C120.324 82.8888 120.253 82.7409 120.183 82.5921C119.988 82.1815 119.779 81.7822 119.553 81.3888C119.53 81.3477 119.506 81.3065 119.482 81.2642C119.198 80.7684 118.914 80.2767 118.582 79.8129C118.484 79.6726 118.39 79.5304 118.296 79.3865C118.116 79.1114 117.929 78.8437 117.734 78.5795C117.7 78.5335 117.666 78.4874 117.631 78.44C117.328 78.0348 117.003 77.6516 116.669 77.2733C116.631 77.231 116.594 77.1887 116.556 77.1452C116.523 77.1082 116.49 77.0712 116.456 77.0331C116.367 76.9249 116.367 76.9249 116.296 76.8055C116.218 76.6809 116.135 76.598 116.026 76.5006C115.838 76.3274 115.665 76.1458 115.494 75.9557C115.074 75.4886 114.627 75.0757 114.147 74.6738C114.015 74.5616 113.89 74.4433 113.764 74.3243C113.467 74.0476 113.148 73.8033 112.826 73.5576C112.727 73.4814 112.629 73.4041 112.531 73.3264C112.168 73.0389 111.802 72.7668 111.411 72.5188C111.296 72.4448 111.182 72.369 111.068 72.2932C110.254 71.7601 109.405 71.3015 108.547 70.846C108.51 70.8265 108.473 70.8069 108.435 70.7868C108.325 70.7284 108.214 70.6706 108.103 70.6132C108.061 70.5916 108.019 70.5701 107.976 70.5478C107.643 70.3786 107.304 70.2317 106.958 70.0911C106.875 70.0571 106.875 70.0571 106.791 70.0224C106.616 69.951 106.442 69.8798 106.267 69.8087C106.148 69.7599 106.029 69.7112 105.91 69.6624C105.62 69.5436 105.329 69.425 105.039 69.3066C105.026 69.341 105.012 69.3753 104.999 69.4106C105.059 69.4325 105.119 69.4544 105.181 69.4769C105.382 69.5551 105.559 69.6529 105.741 69.7693C105.773 69.7896 105.805 69.8099 105.838 69.8308C105.945 69.8999 106.052 69.9697 106.16 70.0398C106.198 70.0649 106.236 70.0901 106.276 70.116C106.845 70.4899 107.408 70.8741 107.969 71.2604C108.028 71.3011 108.087 71.3419 108.149 71.3838C108.205 71.4225 108.261 71.4612 108.318 71.5011C108.368 71.5353 108.417 71.5695 108.469 71.6048C109.734 72.5048 111.011 73.5146 112.087 74.6397C112.204 74.7608 112.322 74.8766 112.446 74.9907C112.659 75.1902 112.86 75.4024 113.06 75.6158C113.15 75.7105 113.242 75.8035 113.335 75.8949C113.62 76.1821 113.876 76.4953 114.137 76.8051C114.216 76.8992 114.295 76.993 114.375 77.0867C115.652 78.5922 116.742 80.2384 117.685 81.9808C117.705 82.0165 117.724 82.0521 117.744 82.0889C117.983 82.5251 118.205 82.9673 118.415 83.4189C118.507 83.6177 118.603 83.8137 118.704 84.008C118.864 84.3192 119.001 84.6397 119.138 84.962C119.163 85.02 119.188 85.078 119.214 85.1377C119.346 85.4461 119.468 85.7552 119.577 86.0729C119.643 86.2622 119.716 86.448 119.789 86.6344C119.963 87.0862 120.119 87.5431 120.267 88.0047C120.289 88.0717 120.311 88.1387 120.333 88.2077C120.478 88.6689 120.478 88.6689 120.433 88.7864C119.629 88.9127 118.827 89.0385 118.017 89.1114C117.852 89.1269 117.688 89.1448 117.523 89.1625C117.105 89.207 116.687 89.2461 116.268 89.2658C116.198 89.2693 116.128 89.2727 116.056 89.2763C114.453 89.3446 112.93 89.2151 111.377 88.8422C111.242 88.8095 111.242 88.8095 111.128 88.8018C110.798 88.7524 110.477 88.592 110.167 88.4721C110.126 88.4565 110.086 88.4409 110.045 88.4249C109.419 88.182 108.836 87.9131 108.273 87.5441C108.203 87.4998 108.132 87.4557 108.061 87.4116C107.673 87.1642 107.314 86.8887 106.965 86.5885C106.928 86.5575 106.892 86.5264 106.855 86.4944C106.638 86.3038 106.461 86.1073 106.286 85.8769C106.236 85.8166 106.186 85.7564 106.135 85.6966C105.79 85.2823 105.487 84.8631 105.223 84.389C105.206 84.3572 105.188 84.3254 105.169 84.2927C104.897 83.8073 104.666 83.3052 104.444 82.7938C104.408 82.7101 104.408 82.7101 104.371 82.6248C104.207 82.24 104.08 81.8511 103.963 81.4487C103.93 81.3409 103.896 81.233 103.862 81.1253C103.442 79.7366 103.172 78.2769 102.997 76.8336C102.921 76.2142 102.814 75.5999 102.712 74.9848C102.682 74.8071 102.654 74.6294 102.626 74.4515C102.465 73.4288 102.288 72.4096 101.997 71.4174C101.982 71.3649 101.968 71.3123 101.952 71.2582C101.924 71.1582 101.895 71.0585 101.866 70.9588C101.837 70.8605 101.809 70.7619 101.781 70.6631C101.674 70.2871 101.541 69.9238 101.4 69.5601C101.373 69.49 101.373 69.49 101.346 69.4185C101.219 69.096 101.073 68.7892 100.91 68.4843C100.889 68.446 100.869 68.4076 100.848 68.3681C100.479 67.6846 100.055 67.0805 99.5545 66.4893C99.474 66.3932 99.3964 66.2945 99.3202 66.1949C99.1727 66.0093 99.0065 65.8567 98.8269 65.7038C98.7946 65.676 98.7623 65.6483 98.729 65.6197C98.4136 65.3518 98.0881 65.0998 97.7467 64.8667C97.7111 64.842 97.6754 64.8174 97.6387 64.792C97.2604 64.5432 96.8538 64.3874 96.4315 64.23C96.3603 64.2031 96.2892 64.176 96.218 64.149C96.0458 64.0836 95.8733 64.0188 95.7007 63.9544Z" fill="#3EB14A"/>
<path d="M335.543 126.303C335.835 126.25 335.914 126.308 336.174 126.443C336.251 126.483 336.328 126.523 336.407 126.564C336.782 126.767 337.152 126.977 337.521 127.191C337.599 127.236 337.676 127.281 337.756 127.328C338.663 127.856 339.543 128.392 340.382 129.023C340.522 129.127 340.664 129.229 340.808 129.326C342.293 130.38 343.693 131.654 344.936 132.983C344.992 133.041 345.048 133.099 345.105 133.159C345.436 133.506 345.755 133.863 346.072 134.223C346.126 134.285 346.126 134.285 346.181 134.348C346.767 135.018 347.325 135.707 347.857 136.421C347.954 136.551 348.052 136.68 348.149 136.81C348.493 137.269 348.824 137.734 349.129 138.221C349.159 138.268 349.189 138.315 349.219 138.363C351.074 141.279 352.684 144.538 353.43 147.931C353.507 148.264 353.603 148.592 353.696 148.92C353.803 149.42 353.909 149.92 354.019 150.435C354.414 147.687 354.808 144.939 355.215 142.108C355.378 142.326 355.434 142.553 355.507 142.812C355.522 142.865 355.538 142.919 355.554 142.974C355.605 143.15 355.655 143.325 355.705 143.501C355.74 143.623 355.776 143.745 355.811 143.867C355.882 144.112 355.953 144.357 356.023 144.602C356.151 145.047 356.282 145.491 356.413 145.935C356.436 146.011 356.458 146.087 356.481 146.166C356.692 146.878 356.906 147.589 357.121 148.299C357.344 149.042 357.565 149.786 357.784 150.53C357.969 151.159 358.155 151.788 358.341 152.416C358.38 152.546 358.418 152.675 358.456 152.805C358.862 154.207 358.862 154.207 359.304 155.597C359.455 155.38 359.496 155.126 359.56 154.872C359.584 154.779 359.584 154.779 359.608 154.684C359.854 153.679 360.038 152.659 360.233 151.643C360.428 150.633 360.622 149.63 360.92 148.644C360.97 148.651 361.02 148.659 361.072 148.666C361.109 148.779 361.147 148.891 361.184 149.004C361.221 149.113 361.257 149.223 361.294 149.333C361.41 149.682 361.525 150.031 361.64 150.38C361.994 151.46 362.355 152.535 362.758 153.599C362.94 154.077 363.107 154.557 363.265 155.043C363.381 155.393 363.504 155.74 363.628 156.088C363.651 156.154 363.675 156.219 363.699 156.287C363.812 156.604 363.926 156.921 364.041 157.238C364.319 158.008 364.586 158.781 364.839 159.56C364.877 159.68 364.877 159.68 364.917 159.803C365.284 160.935 365.627 162.069 365.927 163.221C366.027 163.604 366.134 163.986 366.239 164.368C366.519 165.388 366.795 166.409 367.039 167.438C367.198 168.101 367.386 168.753 367.608 169.398C367.684 169.622 367.744 169.847 367.798 170.078C368.337 172.329 369.09 174.615 370.104 176.695C370.15 176.794 370.195 176.892 370.24 176.991C370.83 178.267 371.503 179.6 372.373 180.711C372.448 180.818 372.448 180.818 372.426 180.969C372.476 180.976 372.526 180.983 372.578 180.991C372.57 181.041 372.563 181.091 372.556 181.142C372.089 181.023 371.666 180.834 371.229 180.633C371.152 180.598 371.076 180.563 370.997 180.527C369.623 179.894 368.287 179.197 366.981 178.434C366.931 178.405 366.88 178.376 366.828 178.346C366.56 178.187 366.321 178.015 366.08 177.817C365.964 177.745 365.847 177.673 365.73 177.603C363.1 176.011 360.698 173.961 358.491 171.831C358.319 171.664 358.145 171.5 357.97 171.337C357.295 170.708 356.65 170.056 356.014 169.388C355.854 169.221 355.691 169.056 355.528 168.891C354.863 168.217 354.225 167.515 353.669 166.748C353.55 166.588 353.424 166.439 353.293 166.29C352.99 165.942 352.693 165.583 352.441 165.197C352.448 165.147 352.455 165.097 352.462 165.046C352.412 165.038 352.362 165.031 352.311 165.024C352.228 164.917 352.228 164.917 352.131 164.761C351.985 164.528 351.838 164.296 351.687 164.066C350.425 162.143 349.282 160.084 348.456 157.933C348.349 157.662 348.233 157.396 348.114 157.13C347.921 156.69 347.763 156.247 347.616 155.791C347.506 155.448 347.387 155.109 347.262 154.771C347.009 154.089 346.817 153.404 346.648 152.696C346.59 152.461 346.522 152.228 346.456 151.995C346.255 151.257 346.134 150.502 346.006 149.748C345.954 150.256 345.907 150.764 345.864 151.273C345.859 151.333 345.854 151.393 345.848 151.455C345.706 153.166 345.865 154.965 346.196 156.647C346.228 156.812 346.258 156.977 346.288 157.142C346.538 158.506 346.915 159.844 347.382 161.148C347.416 161.243 347.416 161.243 347.451 161.34C347.801 162.314 348.195 163.257 348.645 164.188C348.672 164.245 348.699 164.301 348.727 164.359C349.085 165.107 349.469 165.833 349.893 166.545C349.99 166.708 350.087 166.872 350.183 167.037C350.566 167.687 350.966 168.32 351.4 168.938C351.522 169.116 351.64 169.296 351.76 169.476C352.057 169.921 352.371 170.351 352.693 170.778C352.786 170.902 352.878 171.025 352.97 171.149C353.272 171.552 353.579 171.946 353.911 172.324C354.07 172.506 354.222 172.694 354.374 172.882C354.73 173.313 355.103 173.724 355.484 174.133C355.604 174.264 355.723 174.396 355.843 174.527C356.658 175.414 357.519 176.256 358.38 177.098C358.433 177.15 358.486 177.202 358.541 177.255C359.148 177.849 359.764 178.431 360.4 178.995C360.599 179.171 360.793 179.351 360.986 179.534C361.262 179.795 361.546 180.043 361.836 180.289C362.071 180.49 362.303 180.694 362.535 180.898C363.253 181.53 363.982 182.147 364.717 182.758C364.977 182.975 365.236 183.193 365.494 183.412C365.536 183.448 365.579 183.484 365.623 183.521C365.703 183.589 365.783 183.657 365.864 183.725C365.956 183.803 366.049 183.88 366.143 183.957C366.194 184 366.244 184.042 366.296 184.085C366.343 184.123 366.39 184.162 366.438 184.202C366.472 184.233 366.506 184.264 366.54 184.296C366.537 184.321 366.533 184.346 366.53 184.372C365.914 184.237 365.318 184.061 364.719 183.864C364.58 183.819 364.58 183.819 364.437 183.772C363.432 183.442 362.435 183.091 361.439 182.733C361.346 182.7 361.252 182.666 361.156 182.632C359.575 182.066 358.007 181.474 356.453 180.839C356.379 180.809 356.306 180.78 356.231 180.749C355.272 180.359 354.338 179.918 353.404 179.474C353.223 179.389 353.042 179.303 352.861 179.218C352.795 179.186 352.728 179.154 352.66 179.122C352.516 179.055 352.371 178.99 352.226 178.926C351.908 178.781 351.599 178.623 351.29 178.461C351.227 178.428 351.164 178.395 351.1 178.362C348.398 176.947 348.398 176.947 347.458 176.263C347.277 176.141 347.096 176.033 346.906 175.926C346.516 175.704 346.154 175.45 345.792 175.185C345.731 175.14 345.67 175.096 345.607 175.051C344.987 174.601 344.397 174.119 343.826 173.608C343.782 173.57 343.739 173.531 343.694 173.492C343.459 173.282 343.259 173.077 343.08 172.815C343.333 172.719 343.554 172.69 343.824 172.679C343.905 172.675 343.986 172.671 344.069 172.668C344.155 172.664 344.241 172.66 344.33 172.657C344.939 172.627 345.536 172.584 346.139 172.49C347.067 172.36 348.017 172.317 348.953 172.268C348.872 172.246 348.872 172.246 348.789 172.224C347.115 171.749 345.413 170.878 344.056 169.788C343.98 169.742 343.905 169.697 343.827 169.65C343.549 169.482 343.292 169.294 343.035 169.095C342.987 169.058 342.939 169.021 342.889 168.983C342.376 168.583 341.895 168.152 341.418 167.709C341.378 167.672 341.338 167.635 341.296 167.597C340.664 167.016 340.091 166.396 339.538 165.74C339.504 165.7 339.47 165.66 339.435 165.618C337.83 163.715 337.83 163.715 337.399 162.883C337.406 162.833 337.413 162.783 337.42 162.731C337.37 162.724 337.321 162.717 337.269 162.71C337.186 162.582 337.186 162.582 337.097 162.408C337.064 162.344 337.031 162.281 336.997 162.215C336.962 162.147 336.927 162.079 336.892 162.008C336.856 161.939 336.82 161.869 336.783 161.797C336.713 161.66 336.643 161.522 336.573 161.385C336.503 161.249 336.431 161.115 336.359 160.981C335.821 159.98 335.437 158.878 335.097 157.796C335.076 157.732 335.056 157.668 335.035 157.602C335.017 157.542 334.999 157.483 334.98 157.421C334.964 157.37 334.949 157.318 334.932 157.264C334.905 157.116 334.905 157.116 334.948 156.814C335.1 156.842 335.252 156.872 335.404 156.903C335.488 156.92 335.573 156.936 335.66 156.953C335.951 157.039 336.163 157.171 336.419 157.334C336.569 157.402 336.72 157.467 336.873 157.529C337.414 157.753 337.944 157.997 338.475 158.242C339.054 158.509 339.633 158.776 340.216 159.033C340.267 159.056 340.318 159.078 340.371 159.102C340.649 159.224 340.928 159.327 341.219 159.414C341.193 159.375 341.168 159.337 341.142 159.297C341.018 159.11 340.897 158.921 340.776 158.732C340.733 158.667 340.69 158.602 340.646 158.535C339.761 157.139 339.187 155.561 338.861 153.947C338.821 153.756 338.774 153.566 338.721 153.379C338.658 153.13 338.623 152.894 338.601 152.638C338.564 152.242 338.501 151.848 338.445 151.454C338.415 151.24 338.387 151.027 338.359 150.813C338.35 150.743 338.34 150.673 338.331 150.601C338.244 149.877 338.246 149.155 338.248 148.426C338.248 148.357 338.248 148.288 338.248 148.216C338.253 146.004 338.355 143.794 338.499 141.587C338.59 140.191 338.606 138.801 338.585 137.402C338.584 137.32 338.583 137.238 338.582 137.154C338.554 135.39 338.378 133.627 337.983 131.907C337.97 131.85 337.958 131.792 337.944 131.733C337.505 129.779 336.745 127.915 335.543 126.303Z" fill="#3EB14A"/>
<path d="M47.9871 129.303C47.6951 129.25 47.6158 129.308 47.3565 129.443C47.2794 129.483 47.2024 129.523 47.123 129.564C46.748 129.767 46.3776 129.977 46.0092 130.191C45.9315 130.236 45.8538 130.281 45.7737 130.328C44.8673 130.856 43.9867 131.392 43.1475 132.023C43.0078 132.127 42.8663 132.229 42.7218 132.326C41.2369 133.38 39.8372 134.654 38.5937 135.983C38.5379 136.041 38.4821 136.099 38.4246 136.159C38.0939 136.506 37.7746 136.863 37.4583 137.223C37.404 137.285 37.404 137.285 37.3486 137.348C36.7629 138.018 36.2049 138.707 35.6727 139.421C35.5758 139.551 35.4784 139.68 35.3809 139.81C35.0366 140.269 34.7057 140.734 34.4012 141.221C34.3713 141.268 34.3415 141.315 34.3107 141.363C32.4563 144.279 30.8464 147.538 30.1 150.931C30.0235 151.264 29.9271 151.592 29.8341 151.92C29.7274 152.42 29.6207 152.92 29.5108 153.435C29.1162 150.687 28.7217 147.939 28.3152 145.108C28.1517 145.326 28.0963 145.553 28.023 145.812C28.0075 145.865 27.992 145.919 27.9761 145.974C27.9253 146.15 27.8751 146.325 27.8248 146.501C27.7895 146.623 27.7543 146.745 27.719 146.867C27.6482 147.112 27.5775 147.357 27.507 147.602C27.3786 148.047 27.2481 148.491 27.1168 148.935C27.0943 149.011 27.0718 149.087 27.0487 149.166C26.8379 149.878 26.6237 150.589 26.4095 151.299C26.1859 152.042 25.9654 152.786 25.7461 153.53C25.5609 154.159 25.3749 154.788 25.1888 155.416C25.1505 155.546 25.1121 155.675 25.0737 155.805C24.6683 157.207 24.6683 157.207 24.2259 158.597C24.0749 158.38 24.0336 158.126 23.9697 157.872C23.9463 157.779 23.9463 157.779 23.9225 157.684C23.6759 156.679 23.4924 155.659 23.2968 154.643C23.1018 153.633 22.908 152.63 22.6096 151.644C22.5596 151.651 22.5096 151.659 22.4582 151.666C22.4207 151.779 22.3833 151.891 22.3459 152.004C22.3094 152.113 22.2729 152.223 22.2363 152.333C22.1201 152.682 22.0045 153.031 21.89 153.38C21.5357 154.46 21.1747 155.535 20.7715 156.599C20.5904 157.077 20.4234 157.557 20.2653 158.043C20.1492 158.393 20.0264 158.74 19.9024 159.088C19.8789 159.154 19.8555 159.219 19.8313 159.287C19.7179 159.604 19.6038 159.921 19.4892 160.238C19.211 161.008 18.9436 161.781 18.6915 162.56C18.6525 162.68 18.6525 162.68 18.6128 162.803C18.2464 163.935 17.9027 165.069 17.6035 166.221C17.5027 166.604 17.3965 166.986 17.291 167.368C17.0106 168.388 16.7352 169.409 16.4909 170.438C16.332 171.101 16.1437 171.753 15.9225 172.398C15.8461 172.622 15.7862 172.847 15.7322 173.078C15.193 175.329 14.4399 177.615 13.4261 179.695C13.3804 179.794 13.335 179.892 13.2898 179.991C12.7001 181.267 12.0271 182.6 11.1568 183.711C11.0822 183.818 11.0822 183.818 11.1039 183.969C11.0539 183.976 11.004 183.983 10.9525 183.991C10.9597 184.041 10.9668 184.091 10.9742 184.142C11.4409 184.023 11.8645 183.834 12.3014 183.633C12.3778 183.598 12.4541 183.563 12.5328 183.527C13.9066 182.894 15.2428 182.197 16.5487 181.434C16.5992 181.405 16.6496 181.376 16.7016 181.346C16.9703 181.187 17.2092 181.015 17.45 180.817C17.5662 180.745 17.6825 180.673 17.8 180.603C20.4304 179.011 22.8317 176.961 25.0386 174.831C25.2111 174.664 25.3852 174.5 25.5605 174.337C26.2349 173.708 26.8797 173.056 27.5156 172.388C27.676 172.221 27.8387 172.056 28.0017 171.891C28.6673 171.217 29.3047 170.515 29.8608 169.748C29.9798 169.588 30.1062 169.439 30.2372 169.29C30.5401 168.942 30.8368 168.583 31.0894 168.197C31.0823 168.147 31.0751 168.097 31.0677 168.046C31.1177 168.038 31.1676 168.031 31.2191 168.024C31.3019 167.917 31.3019 167.917 31.3987 167.761C31.545 167.528 31.6918 167.296 31.8433 167.066C33.1054 165.143 34.2481 163.084 35.0737 160.933C35.1806 160.662 35.2969 160.396 35.4164 160.13C35.6091 159.69 35.7671 159.247 35.9139 158.791C36.0243 158.448 36.1427 158.109 36.2683 157.771C36.5214 157.089 36.7131 156.404 36.8816 155.696C36.9397 155.461 37.0076 155.228 37.0742 154.995C37.2755 154.257 37.3963 153.502 37.5241 152.748C37.5762 153.256 37.6229 153.764 37.6658 154.273C37.6711 154.333 37.6764 154.393 37.6819 154.455C37.8244 156.166 37.6653 157.965 37.3342 159.647C37.3018 159.812 37.2719 159.977 37.2422 160.142C36.992 161.506 36.6148 162.844 36.1479 164.148C36.1141 164.243 36.1141 164.243 36.0795 164.34C35.7293 165.314 35.3347 166.257 34.8847 167.188C34.8578 167.245 34.8308 167.301 34.8031 167.359C34.4455 168.107 34.0608 168.833 33.6369 169.545C33.5397 169.708 33.4434 169.872 33.3472 170.037C32.9638 170.687 32.5641 171.32 32.1303 171.938C32.0079 172.116 31.8896 172.296 31.7705 172.476C31.4733 172.921 31.1586 173.351 30.8371 173.778C30.7443 173.902 30.6521 174.025 30.5599 174.149C30.2578 174.552 29.9512 174.946 29.6194 175.324C29.4601 175.506 29.3082 175.694 29.1557 175.882C28.8005 176.313 28.4266 176.724 28.046 177.133C27.9264 177.264 27.8069 177.396 27.6874 177.527C26.872 178.414 26.0114 179.256 25.1497 180.098C25.0968 180.15 25.0439 180.202 24.9893 180.255C24.3816 180.849 23.766 181.431 23.1296 181.995C22.9313 182.171 22.737 182.351 22.5444 182.534C22.2683 182.795 21.9836 183.043 21.6942 183.289C21.4594 183.49 21.2272 183.694 20.9951 183.898C20.2773 184.53 19.548 185.147 18.8131 185.758C18.5531 185.975 18.2945 186.193 18.036 186.412C17.9936 186.448 17.9512 186.484 17.9075 186.521C17.8271 186.589 17.7467 186.657 17.6664 186.725C17.5737 186.803 17.4806 186.88 17.3872 186.957C17.3365 187 17.2858 187.042 17.2336 187.085C17.1867 187.123 17.1399 187.162 17.0917 187.202C17.058 187.233 17.0243 187.264 16.9896 187.296C16.9932 187.321 16.9967 187.346 17.0004 187.372C17.6163 187.237 18.2123 187.061 18.811 186.864C18.9505 186.819 18.9505 186.819 19.0927 186.772C20.0979 186.442 21.0953 186.091 22.0911 185.733C22.1844 185.7 22.2777 185.666 22.3738 185.632C23.9546 185.066 25.5231 184.474 27.0774 183.839C27.1505 183.809 27.2236 183.78 27.299 183.749C28.2576 183.359 29.1917 182.918 30.1263 182.474C30.3071 182.389 30.488 182.303 30.6688 182.218C30.7352 182.186 30.8016 182.154 30.87 182.122C31.0139 182.055 31.1588 181.99 31.3042 181.926C31.6221 181.781 31.931 181.623 32.2405 181.461C32.303 181.428 32.3655 181.395 32.4299 181.362C35.1324 179.947 35.1324 179.947 36.0719 179.263C36.2531 179.141 36.4336 179.033 36.624 178.926C37.0145 178.704 37.3757 178.45 37.7382 178.185C37.7994 178.14 37.8605 178.096 37.9234 178.051C38.5433 177.601 39.1335 177.119 39.7041 176.608C39.7478 176.57 39.7914 176.531 39.8364 176.492C40.0709 176.282 40.2711 176.077 40.4498 175.815C40.1973 175.719 39.976 175.69 39.7065 175.679C39.6254 175.675 39.5443 175.671 39.4608 175.668C39.3749 175.664 39.289 175.66 39.2005 175.657C38.5908 175.627 37.9945 175.584 37.391 175.49C36.4627 175.36 35.5127 175.317 34.5769 175.268C34.6583 175.246 34.6583 175.246 34.7414 175.224C36.4147 174.749 38.1174 173.878 39.4743 172.788C39.5499 172.742 39.6255 172.697 39.7034 172.65C39.9814 172.482 40.2384 172.294 40.4951 172.095C40.5432 172.058 40.5913 172.021 40.6408 171.983C41.1536 171.583 41.6351 171.152 42.1116 170.709C42.1519 170.672 42.1922 170.635 42.2337 170.597C42.8664 170.016 43.4389 169.396 43.992 168.74C44.0259 168.7 44.0597 168.66 44.0946 168.618C45.7 166.715 45.7 166.715 46.1313 165.883C46.1241 165.833 46.117 165.783 46.1096 165.731C46.1595 165.724 46.2095 165.717 46.261 165.71C46.3439 165.582 46.3439 165.582 46.4334 165.408C46.4663 165.344 46.4993 165.281 46.5332 165.215C46.5679 165.147 46.6026 165.079 46.6383 165.008C46.6741 164.939 46.7098 164.869 46.7467 164.797C46.8172 164.66 46.8874 164.522 46.9575 164.385C47.027 164.249 47.0985 164.115 47.171 163.981C47.7088 162.98 48.0932 161.878 48.4333 160.796C48.4537 160.732 48.474 160.668 48.495 160.602C48.5131 160.542 48.5312 160.483 48.5498 160.421C48.5655 160.37 48.5813 160.318 48.5976 160.264C48.6255 160.116 48.6255 160.116 48.582 159.814C48.4299 159.842 48.2781 159.872 48.1265 159.903C48.0419 159.92 47.9574 159.936 47.8702 159.953C47.579 160.039 47.3669 160.171 47.1115 160.334C46.9614 160.402 46.8097 160.467 46.6568 160.529C46.1163 160.753 45.5856 160.997 45.0546 161.242C44.4759 161.509 43.8971 161.776 43.314 162.033C43.2629 162.056 43.2118 162.078 43.1592 162.102C42.8808 162.224 42.6025 162.327 42.3112 162.414C42.3366 162.375 42.3621 162.337 42.3883 162.297C42.5116 162.11 42.6328 161.921 42.7541 161.732C42.7969 161.667 42.8398 161.602 42.8839 161.535C43.7694 160.139 44.343 158.561 44.6687 156.947C44.709 156.756 44.7556 156.566 44.8088 156.379C44.8719 156.13 44.907 155.894 44.9291 155.638C44.9663 155.242 45.0294 154.848 45.0853 154.454C45.1151 154.24 45.1434 154.027 45.171 153.813C45.1803 153.743 45.1896 153.673 45.1992 153.601C45.2856 152.877 45.2845 152.155 45.2822 151.426C45.2821 151.357 45.282 151.288 45.2819 151.216C45.2768 149.004 45.1749 146.794 45.0306 144.587C44.9395 143.191 44.9237 141.801 44.9452 140.402C44.9462 140.32 44.9473 140.238 44.9484 140.154C44.9761 138.39 45.152 136.627 45.5469 134.907C45.5597 134.85 45.5725 134.792 45.5857 134.733C46.0247 132.779 46.7849 130.915 47.9871 129.303Z" fill="#3EB14A"/>
<path d="M358.589 127.183C358.488 127.502 358.437 127.82 358.391 128.15C358.384 128.203 358.376 128.256 358.368 128.31C358.35 128.438 358.332 128.567 358.314 128.696C358.284 128.68 358.255 128.664 358.225 128.648C356.235 127.593 354.157 126.822 351.953 126.357C351.901 126.346 351.848 126.335 351.795 126.323C350.757 126.103 349.693 125.945 348.631 125.902C348.505 125.896 348.379 125.89 348.253 125.884C348.017 125.871 347.781 125.86 347.545 125.849C347.533 125.878 347.52 125.908 347.507 125.938C347.55 125.984 347.55 125.984 347.594 126.031C348.373 126.86 348.373 126.86 349.111 127.725C349.142 127.763 349.173 127.801 349.205 127.84C349.626 128.361 350.04 128.888 350.432 129.431C350.478 129.495 350.524 129.558 350.57 129.622C350.962 130.158 351.329 130.708 351.69 131.265C351.749 131.357 351.809 131.447 351.869 131.538C352.262 132.127 352.632 132.736 352.966 133.36C352.589 133.177 352.226 132.974 351.865 132.761C351.505 132.548 351.142 132.352 350.764 132.172C350.624 132.102 350.497 132.023 350.366 131.939C350.249 131.883 350.13 131.836 350.01 131.787C350.099 132.012 350.194 132.234 350.292 132.455C350.718 133.407 350.718 133.407 351.068 134.389C351.102 134.495 351.139 134.6 351.177 134.704C351.189 134.738 351.201 134.771 351.213 134.806C351.238 134.873 351.262 134.939 351.287 135.005C351.34 135.153 351.371 135.252 351.358 135.41C351.4 135.49 351.441 135.569 351.484 135.648C351.57 135.83 351.611 136.025 351.657 136.221C351.679 136.311 351.701 136.4 351.723 136.49C351.739 136.556 351.739 136.556 351.756 136.623C351.792 136.768 351.829 136.912 351.868 137.056C352.071 137.729 352.071 137.729 352.127 138.419C352.157 138.431 352.186 138.444 352.216 138.457C352.212 138.506 352.212 138.506 352.209 138.556C352.211 138.778 352.252 138.99 352.291 139.208C352.38 139.731 352.44 140.253 352.489 140.781C352.455 140.747 352.422 140.714 352.387 140.68C352.365 140.658 352.343 140.636 352.32 140.613C352.27 140.563 352.221 140.514 352.171 140.465C352.044 140.338 351.917 140.212 351.79 140.086C351.767 140.063 351.744 140.04 351.72 140.017C351.674 139.971 351.628 139.925 351.582 139.879C351.396 139.695 351.215 139.506 351.036 139.315C350.942 139.229 350.942 139.229 350.764 139.153C350.721 140.292 350.911 141.465 351.109 142.582C351.136 142.735 351.161 142.889 351.186 143.042C351.233 143.326 351.286 143.609 351.342 143.891C351.352 143.938 351.361 143.986 351.371 144.034C351.436 144.355 351.509 144.672 351.59 144.989C351.629 145.144 351.664 145.3 351.698 145.456C351.784 145.833 351.89 146.206 351.997 146.578C352.023 146.67 352.049 146.762 352.075 146.855C352.346 147.805 352.659 148.746 353.042 149.658C353.087 149.759 353.087 149.759 353.088 149.868C353.117 149.881 353.147 149.893 353.177 149.906C353.176 149.935 353.175 149.964 353.174 149.993C353.195 150.165 353.265 150.305 353.339 150.458C353.37 150.523 353.399 150.587 353.429 150.651C353.444 150.683 353.459 150.714 353.474 150.747C353.533 150.877 353.585 151.008 353.637 151.14C353.905 151.817 353.905 151.817 354.084 151.974C354.085 152.007 354.087 152.04 354.089 152.073C354.099 152.222 354.149 152.306 354.223 152.435C354.338 152.641 354.448 152.848 354.555 153.059C355.404 154.722 356.37 156.485 357.609 157.891C357.748 157.487 357.836 157.074 357.923 156.657C357.94 156.58 357.956 156.502 357.973 156.424C358.078 155.927 358.176 155.429 358.266 154.929C358.288 154.811 358.31 154.694 358.332 154.576C358.535 153.479 358.715 152.376 358.85 151.269C358.856 151.222 358.862 151.175 358.868 151.127C358.887 150.972 358.906 150.816 358.925 150.66C358.931 150.612 358.937 150.565 358.943 150.516C358.978 150.218 359.006 149.921 359.029 149.622C359.052 149.341 359.076 149.059 359.102 148.778C359.11 148.684 359.119 148.59 359.127 148.496C359.14 148.353 359.153 148.209 359.166 148.066C359.215 147.528 359.258 146.993 359.27 146.453C359.274 146.32 359.279 146.187 359.284 146.054C359.286 145.985 359.288 145.916 359.291 145.848C359.294 145.743 359.298 145.639 359.301 145.534C359.34 144.371 359.34 144.371 359.324 143.995C359.316 143.753 359.316 143.515 359.323 143.273C359.334 142.879 359.328 142.485 359.318 142.091C359.315 141.98 359.312 141.869 359.31 141.759C359.297 141.25 359.27 140.742 359.236 140.234C359.231 140.144 359.225 140.054 359.22 139.964C359.216 139.902 359.216 139.902 359.212 139.838C359.205 139.727 359.199 139.617 359.192 139.506C359.167 139.064 359.134 138.622 359.097 138.181C359.073 137.906 359.055 137.63 359.04 137.354C359.017 136.962 358.976 136.574 358.93 136.184C358.913 136.028 358.896 135.872 358.88 135.717C358.819 135.145 358.756 134.574 358.674 134.004C358.642 133.783 358.618 133.561 358.598 133.338C358.733 133.709 358.865 134.077 358.961 134.46C359.015 134.669 359.076 134.875 359.136 135.082C359.251 135.478 359.356 135.875 359.449 136.277C359.462 136.333 359.462 136.333 359.476 136.391C359.899 138.204 360.21 140.034 360.414 141.884C360.423 141.96 360.432 142.036 360.442 142.113C360.465 142.295 360.473 142.468 360.467 142.651C360.478 142.728 360.49 142.806 360.503 142.883C360.55 143.199 360.56 143.513 360.571 143.832C360.581 144.112 360.594 144.391 360.613 144.671C360.647 145.2 360.668 145.728 360.667 146.258C360.666 146.304 360.666 146.349 360.666 146.396C360.666 146.555 360.665 146.715 360.664 146.875C360.663 146.928 360.663 146.982 360.663 147.037C360.661 147.338 360.652 147.638 360.635 147.939C360.626 148.088 360.619 148.238 360.613 148.387C360.586 149.02 360.55 149.65 360.498 150.281C360.491 150.374 360.491 150.374 360.483 150.468C360.417 151.257 360.417 151.257 360.308 152.04C360.265 152.303 360.225 152.566 360.189 152.83C360.155 153.066 360.116 153.297 360.064 153.529C360.032 153.691 360.007 153.853 359.983 154.017C359.911 154.478 359.818 154.935 359.722 155.392C359.714 155.435 359.705 155.477 359.696 155.521C359.473 156.579 359.2 157.615 358.897 158.652C358.885 158.695 358.872 158.738 358.859 158.782C358.723 159.246 358.584 159.707 358.408 160.159C358.347 160.321 358.311 160.447 358.339 160.62C358.384 160.581 358.429 160.543 358.475 160.503C358.535 160.452 358.594 160.401 358.654 160.35C358.684 160.324 358.713 160.299 358.744 160.273C358.868 160.167 358.991 160.064 359.123 159.968C359.225 159.894 359.309 159.816 359.396 159.726C359.535 159.583 359.676 159.443 359.818 159.304C360.361 158.774 360.361 158.774 360.551 158.554C360.684 158.401 360.826 158.258 360.971 158.115C361.288 157.8 361.583 157.468 361.873 157.129C361.895 157.104 361.916 157.079 361.938 157.054C362.274 156.659 362.59 156.247 362.906 155.837C362.926 155.81 362.947 155.784 362.968 155.756C363.18 155.481 363.388 155.205 363.582 154.916C363.659 154.801 363.742 154.69 363.826 154.578C363.981 154.366 364.121 154.148 364.257 153.924C364.331 153.806 364.406 153.691 364.485 153.576C364.817 153.095 365.105 152.604 365.374 152.085C365.493 151.858 365.617 151.634 365.741 151.41C366.106 150.743 366.416 150.054 366.712 149.354C366.771 149.215 366.831 149.075 366.89 148.936C367.233 148.131 367.555 147.317 367.822 146.483C367.836 146.439 367.85 146.395 367.865 146.35C367.928 146.154 367.984 145.963 368.024 145.761C367.762 145.606 367.507 145.633 367.217 145.68C366.855 145.776 366.624 145.924 366.406 146.229C366.377 146.217 366.347 146.204 366.317 146.191C366.343 146.134 366.37 146.076 366.397 146.017C366.488 145.803 366.533 145.595 366.57 145.366C366.613 145.115 366.658 144.869 366.727 144.624C366.811 144.313 366.861 143.998 366.912 143.681C366.921 143.629 366.929 143.577 366.938 143.523C366.945 143.473 366.953 143.424 366.961 143.373C366.968 143.328 366.975 143.284 366.982 143.238C366.995 143.121 366.991 143.016 366.982 142.899C366.995 142.833 367.01 142.767 367.027 142.701C367.09 142.418 367.11 142.135 367.13 141.846C367.144 141.648 367.161 141.451 367.185 141.254C367.214 140.995 367.232 140.735 367.245 140.474C367.248 140.426 367.25 140.377 367.253 140.328C367.289 139.596 367.309 138.866 367.254 138.136C367.243 137.96 367.243 137.788 367.245 137.612C367.248 136.993 367.191 136.371 367.097 135.759C367.076 135.611 367.063 135.463 367.05 135.314C367.031 135.11 366.998 134.927 366.937 134.731C366.93 134.659 366.925 134.587 366.924 134.515C366.748 134.58 366.605 134.655 366.454 134.766C366.395 134.81 366.395 134.81 366.335 134.854C366.294 134.884 366.254 134.914 366.212 134.945C366.172 134.975 366.131 135.004 366.09 135.035C366.014 135.091 365.939 135.146 365.863 135.202C365.752 135.284 365.641 135.365 365.529 135.446C365.399 135.312 365.34 135.177 365.273 135.003C365.252 134.949 365.231 134.896 365.209 134.84C365.187 134.784 365.166 134.728 365.143 134.671C365.101 134.56 365.057 134.449 365.014 134.338C364.995 134.288 364.976 134.239 364.956 134.188C364.904 134.076 364.904 134.076 364.815 134.038C364.827 134.009 364.84 133.979 364.853 133.949C364.809 133.856 364.809 133.856 364.741 133.741C364.634 133.554 364.532 133.365 364.434 133.173C364.027 132.394 363.518 131.611 362.933 130.953C362.813 130.815 362.698 130.673 362.583 130.53C362.028 129.838 361.418 129.222 360.722 128.671C360.627 128.594 360.533 128.515 360.44 128.434C359.903 127.968 359.246 127.463 358.589 127.183Z" fill="#3EB14A"/>
<path d="M24.9407 130.183C25.042 130.502 25.0925 130.82 25.1388 131.15C25.1464 131.203 25.1539 131.256 25.1617 131.31C25.1802 131.438 25.1984 131.567 25.2165 131.696C25.2458 131.68 25.2751 131.664 25.3053 131.648C27.2949 130.593 29.3732 129.822 31.5774 129.357C31.6294 129.346 31.6815 129.335 31.7351 129.323C32.7733 129.103 33.8373 128.945 34.8985 128.902C35.0246 128.896 35.1507 128.89 35.2768 128.884C35.5128 128.871 35.7488 128.86 35.9848 128.849C35.9973 128.878 36.0098 128.908 36.0227 128.938C35.9797 128.984 35.9797 128.984 35.9358 129.031C35.1573 129.86 35.1573 129.86 34.4185 130.725C34.3876 130.763 34.3568 130.801 34.325 130.84C33.9038 131.361 33.4902 131.888 33.0976 132.431C33.0517 132.495 33.0057 132.558 32.9595 132.622C32.5684 133.158 32.2013 133.708 31.8404 134.265C31.781 134.357 31.7213 134.447 31.6608 134.538C31.2682 135.127 30.8977 135.736 30.5639 136.36C30.9412 136.177 31.3035 135.974 31.6649 135.761C32.0253 135.548 32.3883 135.352 32.766 135.172C32.9057 135.102 33.0329 135.023 33.164 134.939C33.281 134.883 33.3997 134.836 33.5199 134.787C33.4313 135.012 33.336 135.234 33.2379 135.455C32.8115 136.407 32.8115 136.407 32.4618 137.389C32.4278 137.495 32.3914 137.6 32.3534 137.704C32.3412 137.738 32.3291 137.771 32.3166 137.806C32.2924 137.873 32.2679 137.939 32.2432 138.005C32.1898 138.153 32.1588 138.252 32.1716 138.41C32.1301 138.49 32.0885 138.569 32.0461 138.648C31.9599 138.83 31.9195 139.025 31.8729 139.221C31.8508 139.311 31.8287 139.4 31.8067 139.49C31.7906 139.556 31.7906 139.556 31.7742 139.623C31.7384 139.768 31.7005 139.912 31.6621 140.056C31.4592 140.729 31.4592 140.729 31.4026 141.419C31.3732 141.431 31.3438 141.444 31.3136 141.457C31.3175 141.506 31.3175 141.506 31.3214 141.556C31.3185 141.778 31.2776 141.99 31.2392 142.208C31.1504 142.731 31.0904 143.253 31.0414 143.781C31.0749 143.747 31.1085 143.714 31.143 143.68C31.1652 143.658 31.1873 143.636 31.2101 143.613C31.2597 143.563 31.3094 143.514 31.359 143.465C31.4858 143.338 31.6126 143.212 31.7397 143.086C31.7628 143.063 31.7859 143.04 31.8098 143.017C31.8559 142.971 31.902 142.925 31.9482 142.879C32.1339 142.695 32.3148 142.506 32.4939 142.315C32.5879 142.229 32.5879 142.229 32.7658 142.153C32.8088 143.292 32.6186 144.465 32.4209 145.582C32.3942 145.735 32.369 145.889 32.344 146.042C32.2972 146.326 32.2443 146.609 32.1875 146.891C32.178 146.938 32.1686 146.986 32.1588 147.034C32.0936 147.355 32.0212 147.672 31.9404 147.989C31.9014 148.144 31.8663 148.3 31.8318 148.456C31.7455 148.833 31.6399 149.206 31.5334 149.578C31.5071 149.67 31.481 149.762 31.455 149.855C31.1838 150.805 30.8705 151.746 30.4875 152.658C30.4432 152.759 30.4432 152.759 30.4419 152.868C30.4125 152.881 30.3832 152.893 30.3529 152.906C30.3538 152.935 30.3547 152.964 30.3556 152.993C30.3345 153.165 30.2645 153.305 30.1905 153.458C30.1604 153.523 30.1305 153.587 30.1006 153.651C30.0858 153.683 30.0711 153.714 30.0558 153.747C29.9972 153.877 29.9448 154.008 29.8928 154.14C29.6248 154.817 29.6248 154.817 29.4464 154.974C29.4445 155.007 29.4425 155.04 29.4405 155.073C29.4313 155.222 29.3806 155.306 29.3072 155.435C29.1922 155.641 29.0817 155.848 28.9752 156.059C28.1256 157.722 27.1599 159.485 25.9213 160.891C25.782 160.487 25.6944 160.074 25.6068 159.657C25.5902 159.58 25.5737 159.502 25.5571 159.424C25.452 158.927 25.3544 158.429 25.2638 157.929C25.2424 157.811 25.2204 157.694 25.1985 157.576C24.9947 156.479 24.8146 155.376 24.68 154.269C24.6742 154.222 24.6684 154.175 24.6624 154.127C24.643 153.972 24.6239 153.816 24.6049 153.66C24.599 153.612 24.5932 153.565 24.5871 153.516C24.5515 153.218 24.5237 152.921 24.5005 152.622C24.4785 152.341 24.4536 152.059 24.4281 151.778C24.4197 151.684 24.4112 151.59 24.4028 151.496C24.3899 151.353 24.377 151.209 24.3638 151.066C24.3148 150.528 24.2722 149.993 24.2598 149.453C24.2556 149.32 24.2508 149.187 24.2462 149.054C24.2439 148.985 24.2416 148.916 24.2393 148.848C24.2358 148.743 24.2323 148.639 24.2288 148.534C24.1895 147.371 24.1895 147.371 24.2057 146.995C24.2143 146.753 24.2142 146.515 24.2067 146.273C24.1964 145.879 24.202 145.485 24.2124 145.091C24.2153 144.98 24.2178 144.869 24.2203 144.759C24.2326 144.25 24.2598 143.742 24.2937 143.234C24.2993 143.144 24.3048 143.054 24.3102 142.964C24.3141 142.902 24.3141 142.902 24.318 142.838C24.3247 142.727 24.3312 142.617 24.3375 142.506C24.3631 142.064 24.3957 141.622 24.4333 141.181C24.4565 140.906 24.4751 140.63 24.4902 140.354C24.5126 139.962 24.554 139.574 24.5995 139.184C24.6172 139.028 24.6338 138.872 24.6502 138.717C24.7107 138.145 24.7737 137.574 24.8563 137.004C24.8875 136.783 24.9118 136.561 24.9324 136.338C24.7972 136.709 24.6646 137.077 24.5691 137.46C24.515 137.669 24.454 137.875 24.3937 138.082C24.2792 138.478 24.174 138.875 24.0809 139.277C24.0677 139.333 24.0677 139.333 24.0542 139.391C23.631 141.204 23.3204 143.034 23.1157 144.884C23.1071 144.96 23.098 145.036 23.0883 145.113C23.0651 145.295 23.0573 145.468 23.0626 145.651C23.0522 145.728 23.0401 145.806 23.0267 145.883C22.9801 146.199 22.9695 146.513 22.9587 146.832C22.9492 147.112 22.9357 147.391 22.9173 147.671C22.883 148.2 22.8618 148.728 22.8635 149.258C22.8636 149.304 22.8637 149.349 22.8639 149.396C22.8645 149.555 22.8654 149.715 22.8664 149.875C22.8666 149.928 22.8668 149.982 22.867 150.037C22.8689 150.338 22.8775 150.638 22.8954 150.939C22.9039 151.088 22.9105 151.238 22.9167 151.387C22.9437 152.02 22.98 152.65 23.0316 153.281C23.0392 153.374 23.0392 153.374 23.0469 153.468C23.1129 154.257 23.1129 154.257 23.2219 155.04C23.2653 155.303 23.3051 155.566 23.3414 155.83C23.3745 156.066 23.4142 156.297 23.4658 156.529C23.4984 156.691 23.5227 156.853 23.5473 157.017C23.619 157.478 23.7116 157.935 23.8075 158.392C23.8164 158.435 23.8253 158.477 23.8344 158.521C24.0566 159.579 24.3297 160.615 24.633 161.652C24.6455 161.695 24.6579 161.738 24.6707 161.782C24.8066 162.246 24.9462 162.707 25.1216 163.159C25.1829 163.321 25.2191 163.447 25.191 163.62C25.1461 163.581 25.1011 163.543 25.0549 163.503C24.9952 163.452 24.9355 163.401 24.8758 163.35C24.8463 163.324 24.8167 163.299 24.7863 163.273C24.6623 163.167 24.5392 163.064 24.4071 162.968C24.3052 162.894 24.2214 162.816 24.134 162.726C23.995 162.583 23.8543 162.443 23.7116 162.304C23.1687 161.774 23.1687 161.774 22.9789 161.554C22.8456 161.401 22.7035 161.258 22.559 161.115C22.2423 160.8 21.9471 160.468 21.6566 160.129C21.6353 160.104 21.6139 160.079 21.592 160.054C21.2557 159.659 20.9402 159.247 20.624 158.837C20.6035 158.81 20.5831 158.784 20.562 158.756C20.3501 158.481 20.1417 158.205 19.9483 157.916C19.8705 157.801 19.7876 157.69 19.7044 157.578C19.5491 157.366 19.4094 157.148 19.2733 156.924C19.1993 156.806 19.1236 156.691 19.0446 156.576C18.7131 156.095 18.4254 155.604 18.1561 155.085C18.0371 154.858 17.9129 154.634 17.7889 154.41C17.424 153.743 17.1142 153.054 16.8182 152.354C16.759 152.215 16.6993 152.075 16.6396 151.936C16.2968 151.131 15.9746 150.317 15.7084 149.483C15.694 149.439 15.6797 149.395 15.6649 149.35C15.6016 149.154 15.5457 148.963 15.5062 148.761C15.768 148.606 16.0231 148.633 16.3127 148.68C16.6748 148.776 16.906 148.924 17.124 149.229C17.1534 149.217 17.1828 149.204 17.213 149.191C17.1866 149.134 17.1602 149.076 17.1329 149.017C17.0416 148.803 16.9967 148.595 16.9602 148.366C16.9173 148.115 16.8715 147.869 16.8025 147.624C16.7192 147.313 16.6687 146.998 16.6178 146.681C16.6094 146.629 16.6009 146.577 16.5922 146.523C16.5845 146.473 16.5768 146.424 16.5689 146.373C16.562 146.328 16.555 146.284 16.5479 146.238C16.5354 146.121 16.5388 146.016 16.5479 145.899C16.5352 145.833 16.52 145.767 16.5031 145.701C16.4401 145.418 16.4201 145.135 16.3996 144.846C16.3855 144.648 16.3685 144.451 16.3454 144.254C16.3156 143.995 16.2982 143.735 16.2846 143.474C16.2821 143.426 16.2796 143.377 16.277 143.328C16.2411 142.596 16.2206 141.866 16.276 141.136C16.2868 140.96 16.2872 140.788 16.2851 140.612C16.2824 139.993 16.3392 139.371 16.4331 138.759C16.4539 138.611 16.467 138.463 16.4799 138.314C16.4985 138.11 16.5319 137.927 16.5928 137.731C16.5995 137.659 16.6049 137.587 16.606 137.515C16.7823 137.58 16.9251 137.655 17.0761 137.766C17.1351 137.81 17.1351 137.81 17.1953 137.854C17.2357 137.884 17.2761 137.914 17.3177 137.945C17.3581 137.975 17.3986 138.004 17.4403 138.035C17.5159 138.091 17.5914 138.146 17.6667 138.202C17.7776 138.284 17.889 138.365 18.0006 138.446C18.1306 138.312 18.1904 138.177 18.2574 138.003C18.2784 137.949 18.2995 137.896 18.3211 137.84C18.3427 137.784 18.3643 137.728 18.3865 137.671C18.4294 137.56 18.4726 137.449 18.5161 137.338C18.5351 137.288 18.554 137.239 18.5736 137.188C18.626 137.076 18.626 137.076 18.715 137.038C18.7025 137.009 18.69 136.979 18.6771 136.949C18.7208 136.856 18.7208 136.856 18.7887 136.741C18.8964 136.554 18.9979 136.365 19.0956 136.173C19.503 135.394 20.0122 134.611 20.5965 133.953C20.7172 133.815 20.832 133.673 20.9469 133.53C21.5022 132.838 22.1116 132.222 22.8077 131.671C22.9032 131.594 22.9973 131.515 23.0897 131.434C23.6266 130.968 24.2839 130.463 24.9407 130.183Z" fill="#3EB14A"/>
<path d="M66.9138 207.694C66.0472 206.193 65.4204 204.707 65.0335 203.237C64.6599 201.79 64.5195 200.347 64.6123 198.907C64.7416 197.478 65.0858 196.047 65.645 194.616L70.0988 195.37C69.2386 197.56 68.8337 199.472 68.884 201.106C68.9573 202.726 69.4674 204.357 70.414 205.996C70.9874 206.989 71.6659 207.845 72.4497 208.562C73.2335 209.28 74.0443 209.751 74.8821 209.975C75.72 210.2 76.5084 210.099 77.2474 209.672C77.7324 209.392 78.0863 209.018 78.3091 208.551C78.5453 208.107 78.6637 207.592 78.6644 207.006C78.7016 206.431 78.6574 205.794 78.5319 205.097C78.4197 204.423 78.2529 203.734 78.0315 203.03C77.8332 202.313 77.5868 201.593 77.2926 200.87C76.7368 199.374 76.3486 197.982 76.1279 196.693C75.9071 195.404 75.8837 194.217 76.0574 193.131C76.2445 192.068 76.624 191.126 77.1959 190.303C77.7908 189.467 78.6079 188.748 79.6472 188.148C80.6633 187.562 81.7319 187.253 82.8531 187.221C83.9876 187.213 85.095 187.451 86.1755 187.936C87.2924 188.43 88.3391 189.15 89.3158 190.095C90.3155 191.027 91.1954 192.151 91.9554 193.467C92.7687 194.876 93.3471 196.251 93.6904 197.592C94.0338 198.933 94.1421 200.241 94.0155 201.515C93.9119 202.776 93.5716 203.973 92.9945 205.107L88.8472 204.083C89.3257 203.099 89.6305 202.107 89.7617 201.107C89.8929 200.108 89.8455 199.119 89.6195 198.141C89.43 197.173 89.0685 196.227 88.5352 195.303C87.9352 194.264 87.2633 193.42 86.5195 192.772C85.789 192.147 85.0364 191.75 84.2617 191.581C83.5101 191.399 82.7878 191.508 82.095 191.908C81.5639 192.215 81.1638 192.615 80.8947 193.109C80.6257 193.603 80.4695 194.186 80.4262 194.858C80.406 195.516 80.5004 196.293 80.7095 197.188C80.9416 198.071 81.2569 199.043 81.6552 200.107C82.1843 201.556 82.5841 202.942 82.8546 204.264C83.1615 205.595 83.2827 206.819 83.2182 207.934C83.1901 209.058 82.9333 210.054 82.4476 210.919C81.9752 211.808 81.2425 212.538 80.2495 213.112C78.7022 214.005 77.1179 214.381 75.4965 214.239C73.8751 214.098 72.326 213.468 70.8491 212.35C69.3856 211.255 68.0738 209.703 66.9138 207.694Z" fill="#FAFDF4"/>
<path d="M114.946 259.96L126.866 239.314L119.107 234.834L121.187 231.231L140.655 242.471L138.575 246.074L130.608 241.474L118.688 262.12L114.946 259.96Z" fill="#FAFDF4"/>
<path d="M202.252 281.588L190.292 253.588H185.612L173.732 281.588H178.412L186.012 263.748C186.145 263.428 186.332 262.962 186.572 262.348C186.785 261.708 187.025 261.028 187.292 260.308C187.559 259.588 187.812 258.908 188.052 258.268C188.292 257.602 188.479 257.082 188.612 256.708L187.532 256.668C187.719 257.202 187.932 257.788 188.172 258.428C188.385 259.068 188.625 259.722 188.892 260.388C189.132 261.055 189.372 261.695 189.612 262.308C189.852 262.895 190.065 263.428 190.252 263.908L197.812 281.588H202.252ZM197.012 274.788L195.332 270.628H181.092L179.692 274.788H197.012Z" fill="#FAFDF4"/>
<path d="M253.316 267.12L239.316 242.871L242.988 240.751L260.828 249.25L259.214 250.136L260.898 230.411L264.431 228.371L278.431 252.62L274.69 254.78L268.87 244.7C267.71 242.69 266.696 240.828 265.828 239.112C264.97 237.359 264.182 235.567 263.463 233.734L264.693 234.825L262.945 252.277L260.658 253.597L244.884 246.354L244.445 244.714C245.645 246.207 246.772 247.758 247.824 249.368C248.886 250.941 250.024 252.778 251.237 254.88L257.057 264.96L253.316 267.12Z" fill="#FAFDF4"/>
<path d="M310.644 212.274L286.395 198.274L293.075 186.704C293.862 185.342 294.91 184.299 296.22 183.577C297.52 182.819 298.929 182.432 300.447 182.415C301.979 182.376 303.437 182.756 304.823 183.556C306.232 184.37 307.307 185.468 308.048 186.85C308.803 188.21 309.187 189.678 309.199 191.256C309.226 192.811 308.832 194.292 308.019 195.701L303.659 203.253L312.804 208.533L310.644 212.274ZM300.056 201.173L304.316 193.794C304.729 193.079 304.924 192.314 304.902 191.5C304.892 190.663 304.694 189.886 304.307 189.17C303.897 188.441 303.322 187.863 302.583 187.436C301.867 187.023 301.114 186.834 300.323 186.87C299.532 186.906 298.784 187.136 298.077 187.56C297.384 187.96 296.831 188.519 296.418 189.234L292.158 196.613L300.056 201.173Z" fill="#FAFDF4"/>
</svg>
